G04 #@! TF.GenerationSoftware,KiCad,Pcbnew,(5.1.0-1348-g4ca769472)*
G04 #@! TF.CreationDate,2019-07-24T13:26:59+02:00*
G04 #@! TF.ProjectId,USB Joystick Adapter 'SINCHAI' (SMD Version),55534220-4a6f-4797-9374-69636b204164,1.0*
G04 #@! TF.SameCoordinates,Original*
G04 #@! TF.FileFunction,Legend,Top*
G04 #@! TF.FilePolarity,Positive*
%FSLAX46Y46*%
G04 Gerber Fmt 4.6, Leading zero omitted, Abs format (unit mm)*
G04 Created by KiCad (PCBNEW (5.1.0-1348-g4ca769472)) date 2019-07-24 13:26:59*
%MOMM*%
%LPD*%
G04 APERTURE LIST*
%ADD10C,0.150000*%
%ADD11C,0.090000*%
%ADD12C,0.120000*%
G04 APERTURE END LIST*
D10*
X130032662Y-106475962D02*
X130675520Y-106475962D01*
X130804091Y-106518820D01*
X130889805Y-106604534D01*
X130932662Y-106733105D01*
X130932662Y-106818820D01*
X130932662Y-105618820D02*
X130932662Y-106047391D01*
X130032662Y-106047391D01*
X130846948Y-104804534D02*
X130889805Y-104847391D01*
X130932662Y-104975962D01*
X130932662Y-105061677D01*
X130889805Y-105190248D01*
X130804091Y-105275962D01*
X130718377Y-105318820D01*
X130546948Y-105361677D01*
X130418377Y-105361677D01*
X130246948Y-105318820D01*
X130161234Y-105275962D01*
X130075520Y-105190248D01*
X130032662Y-105061677D01*
X130032662Y-104975962D01*
X130075520Y-104847391D01*
X130118377Y-104804534D01*
X130032662Y-104161677D02*
X130675520Y-104161677D01*
X130804091Y-104204534D01*
X130889805Y-104290248D01*
X130932662Y-104418820D01*
X130932662Y-104504534D01*
X130932662Y-103304534D02*
X130932662Y-103733105D01*
X130032662Y-103733105D01*
X130846948Y-102490248D02*
X130889805Y-102533105D01*
X130932662Y-102661677D01*
X130932662Y-102747391D01*
X130889805Y-102875962D01*
X130804091Y-102961677D01*
X130718377Y-103004534D01*
X130546948Y-103047391D01*
X130418377Y-103047391D01*
X130246948Y-103004534D01*
X130161234Y-102961677D01*
X130075520Y-102875962D01*
X130032662Y-102747391D01*
X130032662Y-102661677D01*
X130075520Y-102533105D01*
X130118377Y-102490248D01*
X130032662Y-101847391D02*
X130675520Y-101847391D01*
X130804091Y-101890248D01*
X130889805Y-101975962D01*
X130932662Y-102104534D01*
X130932662Y-102190248D01*
X130932662Y-100990248D02*
X130932662Y-101418820D01*
X130032662Y-101418820D01*
X130846948Y-100175962D02*
X130889805Y-100218820D01*
X130932662Y-100347391D01*
X130932662Y-100433105D01*
X130889805Y-100561677D01*
X130804091Y-100647391D01*
X130718377Y-100690248D01*
X130546948Y-100733105D01*
X130418377Y-100733105D01*
X130246948Y-100690248D01*
X130161234Y-100647391D01*
X130075520Y-100561677D01*
X130032662Y-100433105D01*
X130032662Y-100347391D01*
X130075520Y-100218820D01*
X130118377Y-100175962D01*
X130032662Y-99533105D02*
X130675520Y-99533105D01*
X130804091Y-99575962D01*
X130889805Y-99661677D01*
X130932662Y-99790248D01*
X130932662Y-99875962D01*
X130932662Y-98675962D02*
X130932662Y-99104534D01*
X130032662Y-99104534D01*
X130846948Y-97861677D02*
X130889805Y-97904534D01*
X130932662Y-98033105D01*
X130932662Y-98118820D01*
X130889805Y-98247391D01*
X130804091Y-98333105D01*
X130718377Y-98375962D01*
X130546948Y-98418820D01*
X130418377Y-98418820D01*
X130246948Y-98375962D01*
X130161234Y-98333105D01*
X130075520Y-98247391D01*
X130032662Y-98118820D01*
X130032662Y-98033105D01*
X130075520Y-97904534D01*
X130118377Y-97861677D01*
D11*
X152200000Y-109800000D02*
X112700000Y-109800000D01*
X152200000Y-94800000D02*
X152200000Y-109800000D01*
X112700000Y-94800000D02*
X152200000Y-94800000D01*
X112700000Y-94800000D02*
X112700000Y-109800000D01*
D10*
X118700638Y-95891304D02*
X118700638Y-95091304D01*
X118891114Y-95091304D01*
X119005400Y-95129400D01*
X119081590Y-95205590D01*
X119119685Y-95281780D01*
X119157780Y-95434161D01*
X119157780Y-95548447D01*
X119119685Y-95700828D01*
X119081590Y-95777019D01*
X119005400Y-95853209D01*
X118891114Y-95891304D01*
X118700638Y-95891304D01*
X119500638Y-95586542D02*
X120110161Y-95586542D01*
X118078200Y-98552076D02*
X118116295Y-98475885D01*
X118116295Y-98361600D01*
X118078200Y-98247314D01*
X118002009Y-98171123D01*
X117925819Y-98133028D01*
X117773438Y-98094933D01*
X117659152Y-98094933D01*
X117506771Y-98133028D01*
X117430580Y-98171123D01*
X117354390Y-98247314D01*
X117316295Y-98361600D01*
X117316295Y-98437790D01*
X117354390Y-98552076D01*
X117392485Y-98590171D01*
X117659152Y-98590171D01*
X117659152Y-98437790D01*
X117316295Y-98933028D02*
X118116295Y-98933028D01*
X117316295Y-99390171D01*
X118116295Y-99390171D01*
X117316295Y-99771123D02*
X118116295Y-99771123D01*
X118116295Y-99961600D01*
X118078200Y-100075885D01*
X118002009Y-100152076D01*
X117925819Y-100190171D01*
X117773438Y-100228266D01*
X117659152Y-100228266D01*
X117506771Y-100190171D01*
X117430580Y-100152076D01*
X117354390Y-100075885D01*
X117316295Y-99961600D01*
X117316295Y-99771123D01*
X120732638Y-101225304D02*
X120732638Y-100425304D01*
X120923114Y-100425304D01*
X121037400Y-100463400D01*
X121113590Y-100539590D01*
X121151685Y-100615780D01*
X121189780Y-100768161D01*
X121189780Y-100882447D01*
X121151685Y-101034828D01*
X121113590Y-101111019D01*
X121037400Y-101187209D01*
X120923114Y-101225304D01*
X120732638Y-101225304D01*
X121532638Y-100920542D02*
X122142161Y-100920542D01*
X121837400Y-101225304D02*
X121837400Y-100615780D01*
X122650304Y-98621666D02*
X123450304Y-98355000D01*
X122650304Y-98088333D01*
X123031257Y-97555000D02*
X123069352Y-97440714D01*
X123107447Y-97402619D01*
X123183638Y-97364523D01*
X123297923Y-97364523D01*
X123374114Y-97402619D01*
X123412209Y-97440714D01*
X123450304Y-97516904D01*
X123450304Y-97821666D01*
X122650304Y-97821666D01*
X122650304Y-97555000D01*
X122688400Y-97478809D01*
X122726495Y-97440714D01*
X122802685Y-97402619D01*
X122878876Y-97402619D01*
X122955066Y-97440714D01*
X122993161Y-97478809D01*
X123031257Y-97555000D01*
X123031257Y-97821666D01*
X122650304Y-97021666D02*
X123297923Y-97021666D01*
X123374114Y-96983571D01*
X123412209Y-96945476D01*
X123450304Y-96869285D01*
X123450304Y-96716904D01*
X123412209Y-96640714D01*
X123374114Y-96602619D01*
X123297923Y-96564523D01*
X122650304Y-96564523D01*
X123412209Y-96221666D02*
X123450304Y-96107380D01*
X123450304Y-95916904D01*
X123412209Y-95840714D01*
X123374114Y-95802619D01*
X123297923Y-95764523D01*
X123221733Y-95764523D01*
X123145542Y-95802619D01*
X123107447Y-95840714D01*
X123069352Y-95916904D01*
X123031257Y-96069285D01*
X122993161Y-96145476D01*
X122955066Y-96183571D01*
X122878876Y-96221666D01*
X122802685Y-96221666D01*
X122726495Y-96183571D01*
X122688400Y-96145476D01*
X122650304Y-96069285D01*
X122650304Y-95878809D01*
X122688400Y-95764523D01*
D12*
X130238000Y-95788000D02*
X126378000Y-95788000D01*
X126378000Y-95788000D02*
X126378000Y-96023000D01*
X130238000Y-95788000D02*
X134098000Y-95788000D01*
X134098000Y-95788000D02*
X134098000Y-96023000D01*
X130238000Y-108808000D02*
X126378000Y-108808000D01*
X126378000Y-108808000D02*
X126378000Y-108573000D01*
X130238000Y-108808000D02*
X134098000Y-108808000D01*
X134098000Y-108808000D02*
X134098000Y-108573000D01*
X134098000Y-108573000D02*
X135913000Y-108573000D01*
X151940000Y-95576667D02*
X148200000Y-95576667D01*
X148200000Y-95576667D02*
X148200000Y-109023333D01*
X148200000Y-109023333D02*
X151940000Y-109023333D01*
X150200000Y-109263333D02*
X147960000Y-109263333D01*
X147960000Y-109263333D02*
X147960000Y-105070000D01*
X112960000Y-109023333D02*
X116700000Y-109023333D01*
X116700000Y-109023333D02*
X116700000Y-95576667D01*
X116700000Y-95576667D02*
X112960000Y-95576667D01*
X114700000Y-95336667D02*
X116940000Y-95336667D01*
X116940000Y-95336667D02*
X116940000Y-99530000D01*
X139850000Y-106690000D02*
X140150000Y-106690000D01*
X139850000Y-108110000D02*
X140150000Y-108110000D01*
X139850000Y-96390000D02*
X140150000Y-96390000D01*
X139850000Y-97810000D02*
X140150000Y-97810000D01*
X144090000Y-106550000D02*
X144090000Y-106850000D01*
X145510000Y-106550000D02*
X145510000Y-106850000D01*
X146460000Y-101070000D02*
X146460000Y-96850000D01*
X143140000Y-101070000D02*
X146460000Y-101070000D01*
X143140000Y-96850000D02*
X143140000Y-101070000D01*
X122456000Y-96090800D02*
X122456000Y-97150800D01*
X121396000Y-96090800D02*
X122456000Y-96090800D01*
X122456000Y-98150800D02*
X122456000Y-100210800D01*
X120396000Y-98150800D02*
X122456000Y-98150800D01*
X120396000Y-96090800D02*
X120396000Y-98150800D01*
X122456000Y-100210800D02*
X118336000Y-100210800D01*
X120396000Y-96090800D02*
X118336000Y-96090800D01*
X118336000Y-96090800D02*
X118336000Y-100210800D01*
X141778000Y-105296000D02*
X141778000Y-99546000D01*
X138178000Y-105296000D02*
X141778000Y-105296000D01*
X138178000Y-99546000D02*
X138178000Y-105296000D01*
X123326000Y-109331000D02*
X121996000Y-109331000D01*
X123326000Y-108001000D02*
X123326000Y-109331000D01*
X120726000Y-109331000D02*
X118126000Y-109331000D01*
X120726000Y-106731000D02*
X120726000Y-109331000D01*
X123326000Y-106731000D02*
X120726000Y-106731000D01*
X118126000Y-109331000D02*
X118126000Y-101591000D01*
X123326000Y-106731000D02*
X123326000Y-101591000D01*
X123326000Y-101591000D02*
X118126000Y-101591000D01*
D10*
X136500620Y-103088344D02*
X137310144Y-103088344D01*
X137405382Y-103040725D01*
X137453001Y-102993106D01*
X137500620Y-102897868D01*
X137500620Y-102707392D01*
X137453001Y-102612154D01*
X137405382Y-102564535D01*
X137310144Y-102516916D01*
X136500620Y-102516916D01*
X137500620Y-101516916D02*
X137500620Y-102088344D01*
X137500620Y-101802630D02*
X136500620Y-101802630D01*
X136643478Y-101897868D01*
X136738716Y-101993106D01*
X136786335Y-102088344D01*
X146617440Y-102680093D02*
X147331726Y-102680093D01*
X147474583Y-102727712D01*
X147569821Y-102822950D01*
X147617440Y-102965807D01*
X147617440Y-103061045D01*
X146950774Y-101775331D02*
X147617440Y-101775331D01*
X146569821Y-102013426D02*
X147284107Y-102251521D01*
X147284107Y-101632474D01*
X117039140Y-102619133D02*
X117753426Y-102619133D01*
X117896283Y-102666752D01*
X117991521Y-102761990D01*
X118039140Y-102904847D01*
X118039140Y-103000085D01*
X117039140Y-102238180D02*
X117039140Y-101619133D01*
X117420093Y-101952466D01*
X117420093Y-101809609D01*
X117467712Y-101714371D01*
X117515331Y-101666752D01*
X117610569Y-101619133D01*
X117848664Y-101619133D01*
X117943902Y-101666752D01*
X117991521Y-101714371D01*
X118039140Y-101809609D01*
X118039140Y-102095323D01*
X117991521Y-102190561D01*
X117943902Y-102238180D01*
X142585714Y-107533333D02*
X142623809Y-107571428D01*
X142661904Y-107685714D01*
X142661904Y-107761904D01*
X142623809Y-107876190D01*
X142547619Y-107952380D01*
X142471428Y-107990476D01*
X142319047Y-108028571D01*
X142204761Y-108028571D01*
X142052380Y-107990476D01*
X141976190Y-107952380D01*
X141900000Y-107876190D01*
X141861904Y-107761904D01*
X141861904Y-107685714D01*
X141900000Y-107571428D01*
X141938095Y-107533333D01*
X142128571Y-106847619D02*
X142661904Y-106847619D01*
X141823809Y-107038095D02*
X142395238Y-107228571D01*
X142395238Y-106733333D01*
X142585714Y-97233333D02*
X142623809Y-97271428D01*
X142661904Y-97385714D01*
X142661904Y-97461904D01*
X142623809Y-97576190D01*
X142547619Y-97652380D01*
X142471428Y-97690476D01*
X142319047Y-97728571D01*
X142204761Y-97728571D01*
X142052380Y-97690476D01*
X141976190Y-97652380D01*
X141900000Y-97576190D01*
X141861904Y-97461904D01*
X141861904Y-97385714D01*
X141900000Y-97271428D01*
X141938095Y-97233333D01*
X141861904Y-96509523D02*
X141861904Y-96890476D01*
X142242857Y-96928571D01*
X142204761Y-96890476D01*
X142166666Y-96814285D01*
X142166666Y-96623809D01*
X142204761Y-96547619D01*
X142242857Y-96509523D01*
X142319047Y-96471428D01*
X142509523Y-96471428D01*
X142585714Y-96509523D01*
X142623809Y-96547619D01*
X142661904Y-96623809D01*
X142661904Y-96814285D01*
X142623809Y-96890476D01*
X142585714Y-96928571D01*
X146761904Y-106833333D02*
X146380952Y-107100000D01*
X146761904Y-107290476D02*
X145961904Y-107290476D01*
X145961904Y-106985714D01*
X146000000Y-106909523D01*
X146038095Y-106871428D01*
X146114285Y-106833333D01*
X146228571Y-106833333D01*
X146304761Y-106871428D01*
X146342857Y-106909523D01*
X146380952Y-106985714D01*
X146380952Y-107290476D01*
X146761904Y-106071428D02*
X146761904Y-106528571D01*
X146761904Y-106300000D02*
X145961904Y-106300000D01*
X146076190Y-106376190D01*
X146152380Y-106452380D01*
X146190476Y-106528571D01*
X147385714Y-98733333D02*
X147423809Y-98771428D01*
X147461904Y-98885714D01*
X147461904Y-98961904D01*
X147423809Y-99076190D01*
X147347619Y-99152380D01*
X147271428Y-99190476D01*
X147119047Y-99228571D01*
X147004761Y-99228571D01*
X146852380Y-99190476D01*
X146776190Y-99152380D01*
X146700000Y-99076190D01*
X146661904Y-98961904D01*
X146661904Y-98885714D01*
X146700000Y-98771428D01*
X146738095Y-98733333D01*
X146661904Y-98466666D02*
X146661904Y-97971428D01*
X146966666Y-98238095D01*
X146966666Y-98123809D01*
X147004761Y-98047619D01*
X147042857Y-98009523D01*
X147119047Y-97971428D01*
X147309523Y-97971428D01*
X147385714Y-98009523D01*
X147423809Y-98047619D01*
X147461904Y-98123809D01*
X147461904Y-98352380D01*
X147423809Y-98428571D01*
X147385714Y-98466666D01*
X118681333Y-100374504D02*
X118681333Y-100945933D01*
X118643238Y-101060219D01*
X118567047Y-101136409D01*
X118452761Y-101174504D01*
X118376571Y-101174504D01*
X119481333Y-101174504D02*
X119024190Y-101174504D01*
X119252761Y-101174504D02*
X119252761Y-100374504D01*
X119176571Y-100488790D01*
X119100380Y-100564980D01*
X119024190Y-100603076D01*
X142480952Y-102680952D02*
X142861904Y-102680952D01*
X142061904Y-102947619D02*
X142480952Y-102680952D01*
X142061904Y-102414285D01*
X142861904Y-101728571D02*
X142861904Y-102185714D01*
X142861904Y-101957142D02*
X142061904Y-101957142D01*
X142176190Y-102033333D01*
X142252380Y-102109523D01*
X142290476Y-102185714D01*
X123833333Y-108761904D02*
X123833333Y-109333333D01*
X123795238Y-109447619D01*
X123719047Y-109523809D01*
X123604761Y-109561904D01*
X123528571Y-109561904D01*
X124176190Y-108838095D02*
X124214285Y-108800000D01*
X124290476Y-108761904D01*
X124480952Y-108761904D01*
X124557142Y-108800000D01*
X124595238Y-108838095D01*
X124633333Y-108914285D01*
X124633333Y-108990476D01*
X124595238Y-109104761D01*
X124138095Y-109561904D01*
X124633333Y-109561904D01*
M02*
