G04 #@! TF.GenerationSoftware,KiCad,Pcbnew,(5.1.0-1348-g4ca769472)*
G04 #@! TF.CreationDate,2019-07-24T13:26:59+02:00*
G04 #@! TF.ProjectId,USB Joystick Adapter 'SINCHAI' (SMD Version),55534220-4a6f-4797-9374-69636b204164,1.0*
G04 #@! TF.SameCoordinates,Original*
G04 #@! TF.FileFunction,Soldermask,Top*
G04 #@! TF.FilePolarity,Negative*
%FSLAX46Y46*%
G04 Gerber Fmt 4.6, Leading zero omitted, Abs format (unit mm)*
G04 Created by KiCad (PCBNEW (5.1.0-1348-g4ca769472)) date 2019-07-24 13:26:59*
%MOMM*%
%LPD*%
G04 APERTURE LIST*
%ADD10C,0.090000*%
%ADD11C,0.100000*%
%ADD12C,1.000000*%
%ADD13R,3.880000X2.246667*%
%ADD14R,1.370000X1.900000*%
%ADD15R,1.900000X1.370000*%
%ADD16R,2.800000X1.860000*%
%ADD17R,1.750000X1.750000*%
%ADD18O,1.750000X1.750000*%
%ADD19R,2.800000X2.400000*%
%ADD20R,2.100000X2.100000*%
%ADD21O,2.100000X2.100000*%
G04 APERTURE END LIST*
D10*
X152200000Y-109800000D02*
X112700000Y-109800000D01*
X152200000Y-94800000D02*
X152200000Y-109800000D01*
X112700000Y-94800000D02*
X152200000Y-94800000D01*
X112700000Y-94800000D02*
X112700000Y-109800000D01*
D11*
G36*
X126658671Y-107532030D02*
G01*
X126739777Y-107586223D01*
X126793970Y-107667329D01*
X126813000Y-107763000D01*
X126813000Y-108263000D01*
X126793970Y-108358671D01*
X126739777Y-108439777D01*
X126658671Y-108493970D01*
X126563000Y-108513000D01*
X124613000Y-108513000D01*
X124517329Y-108493970D01*
X124436223Y-108439777D01*
X124382030Y-108358671D01*
X124363000Y-108263000D01*
X124363000Y-107763000D01*
X124382030Y-107667329D01*
X124436223Y-107586223D01*
X124517329Y-107532030D01*
X124613000Y-107513000D01*
X126563000Y-107513000D01*
X126658671Y-107532030D01*
X126658671Y-107532030D01*
G37*
D12*
X125588000Y-108013000D03*
D11*
G36*
X126658671Y-106262030D02*
G01*
X126739777Y-106316223D01*
X126793970Y-106397329D01*
X126813000Y-106493000D01*
X126813000Y-106993000D01*
X126793970Y-107088671D01*
X126739777Y-107169777D01*
X126658671Y-107223970D01*
X126563000Y-107243000D01*
X124613000Y-107243000D01*
X124517329Y-107223970D01*
X124436223Y-107169777D01*
X124382030Y-107088671D01*
X124363000Y-106993000D01*
X124363000Y-106493000D01*
X124382030Y-106397329D01*
X124436223Y-106316223D01*
X124517329Y-106262030D01*
X124613000Y-106243000D01*
X126563000Y-106243000D01*
X126658671Y-106262030D01*
X126658671Y-106262030D01*
G37*
D12*
X125588000Y-106743000D03*
D11*
G36*
X126658671Y-104992030D02*
G01*
X126739777Y-105046223D01*
X126793970Y-105127329D01*
X126813000Y-105223000D01*
X126813000Y-105723000D01*
X126793970Y-105818671D01*
X126739777Y-105899777D01*
X126658671Y-105953970D01*
X126563000Y-105973000D01*
X124613000Y-105973000D01*
X124517329Y-105953970D01*
X124436223Y-105899777D01*
X124382030Y-105818671D01*
X124363000Y-105723000D01*
X124363000Y-105223000D01*
X124382030Y-105127329D01*
X124436223Y-105046223D01*
X124517329Y-104992030D01*
X124613000Y-104973000D01*
X126563000Y-104973000D01*
X126658671Y-104992030D01*
X126658671Y-104992030D01*
G37*
D12*
X125588000Y-105473000D03*
D11*
G36*
X126658671Y-103722030D02*
G01*
X126739777Y-103776223D01*
X126793970Y-103857329D01*
X126813000Y-103953000D01*
X126813000Y-104453000D01*
X126793970Y-104548671D01*
X126739777Y-104629777D01*
X126658671Y-104683970D01*
X126563000Y-104703000D01*
X124613000Y-104703000D01*
X124517329Y-104683970D01*
X124436223Y-104629777D01*
X124382030Y-104548671D01*
X124363000Y-104453000D01*
X124363000Y-103953000D01*
X124382030Y-103857329D01*
X124436223Y-103776223D01*
X124517329Y-103722030D01*
X124613000Y-103703000D01*
X126563000Y-103703000D01*
X126658671Y-103722030D01*
X126658671Y-103722030D01*
G37*
D12*
X125588000Y-104203000D03*
D11*
G36*
X126658671Y-102452030D02*
G01*
X126739777Y-102506223D01*
X126793970Y-102587329D01*
X126813000Y-102683000D01*
X126813000Y-103183000D01*
X126793970Y-103278671D01*
X126739777Y-103359777D01*
X126658671Y-103413970D01*
X126563000Y-103433000D01*
X124613000Y-103433000D01*
X124517329Y-103413970D01*
X124436223Y-103359777D01*
X124382030Y-103278671D01*
X124363000Y-103183000D01*
X124363000Y-102683000D01*
X124382030Y-102587329D01*
X124436223Y-102506223D01*
X124517329Y-102452030D01*
X124613000Y-102433000D01*
X126563000Y-102433000D01*
X126658671Y-102452030D01*
X126658671Y-102452030D01*
G37*
D12*
X125588000Y-102933000D03*
D11*
G36*
X126658671Y-101182030D02*
G01*
X126739777Y-101236223D01*
X126793970Y-101317329D01*
X126813000Y-101413000D01*
X126813000Y-101913000D01*
X126793970Y-102008671D01*
X126739777Y-102089777D01*
X126658671Y-102143970D01*
X126563000Y-102163000D01*
X124613000Y-102163000D01*
X124517329Y-102143970D01*
X124436223Y-102089777D01*
X124382030Y-102008671D01*
X124363000Y-101913000D01*
X124363000Y-101413000D01*
X124382030Y-101317329D01*
X124436223Y-101236223D01*
X124517329Y-101182030D01*
X124613000Y-101163000D01*
X126563000Y-101163000D01*
X126658671Y-101182030D01*
X126658671Y-101182030D01*
G37*
D12*
X125588000Y-101663000D03*
D11*
G36*
X126658671Y-99912030D02*
G01*
X126739777Y-99966223D01*
X126793970Y-100047329D01*
X126813000Y-100143000D01*
X126813000Y-100643000D01*
X126793970Y-100738671D01*
X126739777Y-100819777D01*
X126658671Y-100873970D01*
X126563000Y-100893000D01*
X124613000Y-100893000D01*
X124517329Y-100873970D01*
X124436223Y-100819777D01*
X124382030Y-100738671D01*
X124363000Y-100643000D01*
X124363000Y-100143000D01*
X124382030Y-100047329D01*
X124436223Y-99966223D01*
X124517329Y-99912030D01*
X124613000Y-99893000D01*
X126563000Y-99893000D01*
X126658671Y-99912030D01*
X126658671Y-99912030D01*
G37*
D12*
X125588000Y-100393000D03*
D11*
G36*
X126658671Y-98642030D02*
G01*
X126739777Y-98696223D01*
X126793970Y-98777329D01*
X126813000Y-98873000D01*
X126813000Y-99373000D01*
X126793970Y-99468671D01*
X126739777Y-99549777D01*
X126658671Y-99603970D01*
X126563000Y-99623000D01*
X124613000Y-99623000D01*
X124517329Y-99603970D01*
X124436223Y-99549777D01*
X124382030Y-99468671D01*
X124363000Y-99373000D01*
X124363000Y-98873000D01*
X124382030Y-98777329D01*
X124436223Y-98696223D01*
X124517329Y-98642030D01*
X124613000Y-98623000D01*
X126563000Y-98623000D01*
X126658671Y-98642030D01*
X126658671Y-98642030D01*
G37*
D12*
X125588000Y-99123000D03*
D11*
G36*
X126658671Y-97372030D02*
G01*
X126739777Y-97426223D01*
X126793970Y-97507329D01*
X126813000Y-97603000D01*
X126813000Y-98103000D01*
X126793970Y-98198671D01*
X126739777Y-98279777D01*
X126658671Y-98333970D01*
X126563000Y-98353000D01*
X124613000Y-98353000D01*
X124517329Y-98333970D01*
X124436223Y-98279777D01*
X124382030Y-98198671D01*
X124363000Y-98103000D01*
X124363000Y-97603000D01*
X124382030Y-97507329D01*
X124436223Y-97426223D01*
X124517329Y-97372030D01*
X124613000Y-97353000D01*
X126563000Y-97353000D01*
X126658671Y-97372030D01*
X126658671Y-97372030D01*
G37*
D12*
X125588000Y-97853000D03*
D11*
G36*
X126658671Y-96102030D02*
G01*
X126739777Y-96156223D01*
X126793970Y-96237329D01*
X126813000Y-96333000D01*
X126813000Y-96833000D01*
X126793970Y-96928671D01*
X126739777Y-97009777D01*
X126658671Y-97063970D01*
X126563000Y-97083000D01*
X124613000Y-97083000D01*
X124517329Y-97063970D01*
X124436223Y-97009777D01*
X124382030Y-96928671D01*
X124363000Y-96833000D01*
X124363000Y-96333000D01*
X124382030Y-96237329D01*
X124436223Y-96156223D01*
X124517329Y-96102030D01*
X124613000Y-96083000D01*
X126563000Y-96083000D01*
X126658671Y-96102030D01*
X126658671Y-96102030D01*
G37*
D12*
X125588000Y-96583000D03*
D11*
G36*
X135958671Y-96102030D02*
G01*
X136039777Y-96156223D01*
X136093970Y-96237329D01*
X136113000Y-96333000D01*
X136113000Y-96833000D01*
X136093970Y-96928671D01*
X136039777Y-97009777D01*
X135958671Y-97063970D01*
X135863000Y-97083000D01*
X133913000Y-97083000D01*
X133817329Y-97063970D01*
X133736223Y-97009777D01*
X133682030Y-96928671D01*
X133663000Y-96833000D01*
X133663000Y-96333000D01*
X133682030Y-96237329D01*
X133736223Y-96156223D01*
X133817329Y-96102030D01*
X133913000Y-96083000D01*
X135863000Y-96083000D01*
X135958671Y-96102030D01*
X135958671Y-96102030D01*
G37*
D12*
X134888000Y-96583000D03*
D11*
G36*
X135958671Y-97372030D02*
G01*
X136039777Y-97426223D01*
X136093970Y-97507329D01*
X136113000Y-97603000D01*
X136113000Y-98103000D01*
X136093970Y-98198671D01*
X136039777Y-98279777D01*
X135958671Y-98333970D01*
X135863000Y-98353000D01*
X133913000Y-98353000D01*
X133817329Y-98333970D01*
X133736223Y-98279777D01*
X133682030Y-98198671D01*
X133663000Y-98103000D01*
X133663000Y-97603000D01*
X133682030Y-97507329D01*
X133736223Y-97426223D01*
X133817329Y-97372030D01*
X133913000Y-97353000D01*
X135863000Y-97353000D01*
X135958671Y-97372030D01*
X135958671Y-97372030D01*
G37*
D12*
X134888000Y-97853000D03*
D11*
G36*
X135958671Y-98642030D02*
G01*
X136039777Y-98696223D01*
X136093970Y-98777329D01*
X136113000Y-98873000D01*
X136113000Y-99373000D01*
X136093970Y-99468671D01*
X136039777Y-99549777D01*
X135958671Y-99603970D01*
X135863000Y-99623000D01*
X133913000Y-99623000D01*
X133817329Y-99603970D01*
X133736223Y-99549777D01*
X133682030Y-99468671D01*
X133663000Y-99373000D01*
X133663000Y-98873000D01*
X133682030Y-98777329D01*
X133736223Y-98696223D01*
X133817329Y-98642030D01*
X133913000Y-98623000D01*
X135863000Y-98623000D01*
X135958671Y-98642030D01*
X135958671Y-98642030D01*
G37*
D12*
X134888000Y-99123000D03*
D11*
G36*
X135958671Y-99912030D02*
G01*
X136039777Y-99966223D01*
X136093970Y-100047329D01*
X136113000Y-100143000D01*
X136113000Y-100643000D01*
X136093970Y-100738671D01*
X136039777Y-100819777D01*
X135958671Y-100873970D01*
X135863000Y-100893000D01*
X133913000Y-100893000D01*
X133817329Y-100873970D01*
X133736223Y-100819777D01*
X133682030Y-100738671D01*
X133663000Y-100643000D01*
X133663000Y-100143000D01*
X133682030Y-100047329D01*
X133736223Y-99966223D01*
X133817329Y-99912030D01*
X133913000Y-99893000D01*
X135863000Y-99893000D01*
X135958671Y-99912030D01*
X135958671Y-99912030D01*
G37*
D12*
X134888000Y-100393000D03*
D11*
G36*
X135958671Y-101182030D02*
G01*
X136039777Y-101236223D01*
X136093970Y-101317329D01*
X136113000Y-101413000D01*
X136113000Y-101913000D01*
X136093970Y-102008671D01*
X136039777Y-102089777D01*
X135958671Y-102143970D01*
X135863000Y-102163000D01*
X133913000Y-102163000D01*
X133817329Y-102143970D01*
X133736223Y-102089777D01*
X133682030Y-102008671D01*
X133663000Y-101913000D01*
X133663000Y-101413000D01*
X133682030Y-101317329D01*
X133736223Y-101236223D01*
X133817329Y-101182030D01*
X133913000Y-101163000D01*
X135863000Y-101163000D01*
X135958671Y-101182030D01*
X135958671Y-101182030D01*
G37*
D12*
X134888000Y-101663000D03*
D11*
G36*
X135958671Y-102452030D02*
G01*
X136039777Y-102506223D01*
X136093970Y-102587329D01*
X136113000Y-102683000D01*
X136113000Y-103183000D01*
X136093970Y-103278671D01*
X136039777Y-103359777D01*
X135958671Y-103413970D01*
X135863000Y-103433000D01*
X133913000Y-103433000D01*
X133817329Y-103413970D01*
X133736223Y-103359777D01*
X133682030Y-103278671D01*
X133663000Y-103183000D01*
X133663000Y-102683000D01*
X133682030Y-102587329D01*
X133736223Y-102506223D01*
X133817329Y-102452030D01*
X133913000Y-102433000D01*
X135863000Y-102433000D01*
X135958671Y-102452030D01*
X135958671Y-102452030D01*
G37*
D12*
X134888000Y-102933000D03*
D11*
G36*
X135958671Y-103722030D02*
G01*
X136039777Y-103776223D01*
X136093970Y-103857329D01*
X136113000Y-103953000D01*
X136113000Y-104453000D01*
X136093970Y-104548671D01*
X136039777Y-104629777D01*
X135958671Y-104683970D01*
X135863000Y-104703000D01*
X133913000Y-104703000D01*
X133817329Y-104683970D01*
X133736223Y-104629777D01*
X133682030Y-104548671D01*
X133663000Y-104453000D01*
X133663000Y-103953000D01*
X133682030Y-103857329D01*
X133736223Y-103776223D01*
X133817329Y-103722030D01*
X133913000Y-103703000D01*
X135863000Y-103703000D01*
X135958671Y-103722030D01*
X135958671Y-103722030D01*
G37*
D12*
X134888000Y-104203000D03*
D11*
G36*
X135958671Y-104992030D02*
G01*
X136039777Y-105046223D01*
X136093970Y-105127329D01*
X136113000Y-105223000D01*
X136113000Y-105723000D01*
X136093970Y-105818671D01*
X136039777Y-105899777D01*
X135958671Y-105953970D01*
X135863000Y-105973000D01*
X133913000Y-105973000D01*
X133817329Y-105953970D01*
X133736223Y-105899777D01*
X133682030Y-105818671D01*
X133663000Y-105723000D01*
X133663000Y-105223000D01*
X133682030Y-105127329D01*
X133736223Y-105046223D01*
X133817329Y-104992030D01*
X133913000Y-104973000D01*
X135863000Y-104973000D01*
X135958671Y-104992030D01*
X135958671Y-104992030D01*
G37*
D12*
X134888000Y-105473000D03*
D11*
G36*
X135958671Y-106262030D02*
G01*
X136039777Y-106316223D01*
X136093970Y-106397329D01*
X136113000Y-106493000D01*
X136113000Y-106993000D01*
X136093970Y-107088671D01*
X136039777Y-107169777D01*
X135958671Y-107223970D01*
X135863000Y-107243000D01*
X133913000Y-107243000D01*
X133817329Y-107223970D01*
X133736223Y-107169777D01*
X133682030Y-107088671D01*
X133663000Y-106993000D01*
X133663000Y-106493000D01*
X133682030Y-106397329D01*
X133736223Y-106316223D01*
X133817329Y-106262030D01*
X133913000Y-106243000D01*
X135863000Y-106243000D01*
X135958671Y-106262030D01*
X135958671Y-106262030D01*
G37*
D12*
X134888000Y-106743000D03*
D11*
G36*
X135958671Y-107532030D02*
G01*
X136039777Y-107586223D01*
X136093970Y-107667329D01*
X136113000Y-107763000D01*
X136113000Y-108263000D01*
X136093970Y-108358671D01*
X136039777Y-108439777D01*
X135958671Y-108493970D01*
X135863000Y-108513000D01*
X133913000Y-108513000D01*
X133817329Y-108493970D01*
X133736223Y-108439777D01*
X133682030Y-108358671D01*
X133663000Y-108263000D01*
X133663000Y-107763000D01*
X133682030Y-107667329D01*
X133736223Y-107586223D01*
X133817329Y-107532030D01*
X133913000Y-107513000D01*
X135863000Y-107513000D01*
X135958671Y-107532030D01*
X135958671Y-107532030D01*
G37*
D12*
X134888000Y-108013000D03*
D13*
X150200000Y-96760000D03*
X150200000Y-99530000D03*
X150200000Y-102300000D03*
X150200000Y-105070000D03*
X150200000Y-107840000D03*
X114700000Y-107840000D03*
X114700000Y-105070000D03*
X114700000Y-102300000D03*
X114700000Y-99530000D03*
X114700000Y-96760000D03*
D14*
X140955000Y-107400000D03*
X139045000Y-107400000D03*
X140955000Y-97100000D03*
X139045000Y-97100000D03*
D15*
X144800000Y-105745000D03*
X144800000Y-107655000D03*
D16*
X144800000Y-100080000D03*
X144800000Y-97120000D03*
D17*
X121396000Y-97150800D03*
D18*
X121396000Y-99150800D03*
X119396000Y-97150800D03*
X119396000Y-99150800D03*
D19*
X139978000Y-104096000D03*
X139978000Y-100396000D03*
D20*
X121996000Y-108001000D03*
D21*
X119456000Y-108001000D03*
X121996000Y-105461000D03*
X119456000Y-105461000D03*
X121996000Y-102921000D03*
X119456000Y-102921000D03*
M02*
