G04 #@! TF.GenerationSoftware,KiCad,Pcbnew,(5.1.0-1348-g4ca769472)*
G04 #@! TF.CreationDate,2019-07-24T13:26:59+02:00*
G04 #@! TF.ProjectId,USB Joystick Adapter 'SINCHAI' (SMD Version),55534220-4a6f-4797-9374-69636b204164,1.0*
G04 #@! TF.SameCoordinates,Original*
G04 #@! TF.FileFunction,Soldermask,Bot*
G04 #@! TF.FilePolarity,Negative*
%FSLAX46Y46*%
G04 Gerber Fmt 4.6, Leading zero omitted, Abs format (unit mm)*
G04 Created by KiCad (PCBNEW (5.1.0-1348-g4ca769472)) date 2019-07-24 13:26:59*
%MOMM*%
%LPD*%
G04 APERTURE LIST*
%ADD10C,0.090000*%
%ADD11R,3.880000X2.246667*%
%ADD12R,1.370000X1.900000*%
%ADD13R,1.750000X1.750000*%
%ADD14O,1.750000X1.750000*%
%ADD15R,2.200000X1.470000*%
%ADD16R,2.100000X2.100000*%
%ADD17O,2.100000X2.100000*%
%ADD18R,1.300000X1.600000*%
G04 APERTURE END LIST*
D10*
X152200000Y-109800000D02*
X112700000Y-109800000D01*
X152200000Y-94800000D02*
X152200000Y-109800000D01*
X112700000Y-94800000D02*
X152200000Y-94800000D01*
X112700000Y-94800000D02*
X112700000Y-109800000D01*
D11*
X150200000Y-98145000D03*
X150200000Y-100915000D03*
X150200000Y-103685000D03*
X150200000Y-106455000D03*
X114700000Y-106455000D03*
X114700000Y-103685000D03*
X114700000Y-100915000D03*
X114700000Y-98145000D03*
D12*
X136303000Y-99771200D03*
X138213000Y-99771200D03*
X136303000Y-104877000D03*
X138213000Y-104877000D03*
X130141000Y-102304000D03*
X132051000Y-102304000D03*
X130141000Y-104854000D03*
X132051000Y-104854000D03*
X130141000Y-99753600D03*
X132051000Y-99753600D03*
D13*
X121396000Y-97150800D03*
D14*
X121396000Y-99150800D03*
X119396000Y-97150800D03*
X119396000Y-99150800D03*
D15*
X125500000Y-103805000D03*
X125500000Y-100795000D03*
D16*
X121996000Y-108001000D03*
D17*
X119456000Y-108001000D03*
X121996000Y-105461000D03*
X119456000Y-105461000D03*
X121996000Y-102921000D03*
X119456000Y-102921000D03*
D18*
X129501000Y-97078800D03*
X132801000Y-97078800D03*
X132801000Y-107518000D03*
X129501000Y-107518000D03*
M02*
