G04 #@! TF.GenerationSoftware,KiCad,Pcbnew,(5.1.0-1348-g4ca769472)*
G04 #@! TF.CreationDate,2019-07-24T13:26:58+02:00*
G04 #@! TF.ProjectId,USB Joystick Adapter 'SINCHAI' (SMD Version),55534220-4a6f-4797-9374-69636b204164,1.0*
G04 #@! TF.SameCoordinates,Original*
G04 #@! TF.FileFunction,Copper,L1,Top*
G04 #@! TF.FilePolarity,Positive*
%FSLAX46Y46*%
G04 Gerber Fmt 4.6, Leading zero omitted, Abs format (unit mm)*
G04 Created by KiCad (PCBNEW (5.1.0-1348-g4ca769472)) date 2019-07-24 13:26:58*
%MOMM*%
%LPD*%
G04 APERTURE LIST*
%ADD10C,0.090000*%
%ADD11C,0.100000*%
%ADD12C,0.600000*%
%ADD13R,3.480000X1.846667*%
%ADD14R,0.970000X1.500000*%
%ADD15R,1.500000X0.970000*%
%ADD16R,2.400000X1.460000*%
%ADD17R,1.350000X1.350000*%
%ADD18O,1.350000X1.350000*%
%ADD19R,2.400000X2.000000*%
%ADD20R,1.700000X1.700000*%
%ADD21O,1.700000X1.700000*%
%ADD22C,0.800000*%
%ADD23C,0.250000*%
%ADD24C,0.350000*%
%ADD25C,0.254000*%
G04 APERTURE END LIST*
D10*
X152200000Y-109800000D02*
X112700000Y-109800000D01*
X152200000Y-94800000D02*
X152200000Y-109800000D01*
X112700000Y-94800000D02*
X152200000Y-94800000D01*
X112700000Y-94800000D02*
X112700000Y-109800000D01*
D11*
G36*
X126520403Y-107724418D02*
G01*
X126569066Y-107756934D01*
X126601582Y-107805597D01*
X126613000Y-107863000D01*
X126613000Y-108163000D01*
X126601582Y-108220403D01*
X126569066Y-108269066D01*
X126520403Y-108301582D01*
X126463000Y-108313000D01*
X124713000Y-108313000D01*
X124655597Y-108301582D01*
X124606934Y-108269066D01*
X124574418Y-108220403D01*
X124563000Y-108163000D01*
X124563000Y-107863000D01*
X124574418Y-107805597D01*
X124606934Y-107756934D01*
X124655597Y-107724418D01*
X124713000Y-107713000D01*
X126463000Y-107713000D01*
X126520403Y-107724418D01*
X126520403Y-107724418D01*
G37*
D12*
X125588000Y-108013000D03*
D11*
G36*
X126520403Y-106454418D02*
G01*
X126569066Y-106486934D01*
X126601582Y-106535597D01*
X126613000Y-106593000D01*
X126613000Y-106893000D01*
X126601582Y-106950403D01*
X126569066Y-106999066D01*
X126520403Y-107031582D01*
X126463000Y-107043000D01*
X124713000Y-107043000D01*
X124655597Y-107031582D01*
X124606934Y-106999066D01*
X124574418Y-106950403D01*
X124563000Y-106893000D01*
X124563000Y-106593000D01*
X124574418Y-106535597D01*
X124606934Y-106486934D01*
X124655597Y-106454418D01*
X124713000Y-106443000D01*
X126463000Y-106443000D01*
X126520403Y-106454418D01*
X126520403Y-106454418D01*
G37*
D12*
X125588000Y-106743000D03*
D11*
G36*
X126520403Y-105184418D02*
G01*
X126569066Y-105216934D01*
X126601582Y-105265597D01*
X126613000Y-105323000D01*
X126613000Y-105623000D01*
X126601582Y-105680403D01*
X126569066Y-105729066D01*
X126520403Y-105761582D01*
X126463000Y-105773000D01*
X124713000Y-105773000D01*
X124655597Y-105761582D01*
X124606934Y-105729066D01*
X124574418Y-105680403D01*
X124563000Y-105623000D01*
X124563000Y-105323000D01*
X124574418Y-105265597D01*
X124606934Y-105216934D01*
X124655597Y-105184418D01*
X124713000Y-105173000D01*
X126463000Y-105173000D01*
X126520403Y-105184418D01*
X126520403Y-105184418D01*
G37*
D12*
X125588000Y-105473000D03*
D11*
G36*
X126520403Y-103914418D02*
G01*
X126569066Y-103946934D01*
X126601582Y-103995597D01*
X126613000Y-104053000D01*
X126613000Y-104353000D01*
X126601582Y-104410403D01*
X126569066Y-104459066D01*
X126520403Y-104491582D01*
X126463000Y-104503000D01*
X124713000Y-104503000D01*
X124655597Y-104491582D01*
X124606934Y-104459066D01*
X124574418Y-104410403D01*
X124563000Y-104353000D01*
X124563000Y-104053000D01*
X124574418Y-103995597D01*
X124606934Y-103946934D01*
X124655597Y-103914418D01*
X124713000Y-103903000D01*
X126463000Y-103903000D01*
X126520403Y-103914418D01*
X126520403Y-103914418D01*
G37*
D12*
X125588000Y-104203000D03*
D11*
G36*
X126520403Y-102644418D02*
G01*
X126569066Y-102676934D01*
X126601582Y-102725597D01*
X126613000Y-102783000D01*
X126613000Y-103083000D01*
X126601582Y-103140403D01*
X126569066Y-103189066D01*
X126520403Y-103221582D01*
X126463000Y-103233000D01*
X124713000Y-103233000D01*
X124655597Y-103221582D01*
X124606934Y-103189066D01*
X124574418Y-103140403D01*
X124563000Y-103083000D01*
X124563000Y-102783000D01*
X124574418Y-102725597D01*
X124606934Y-102676934D01*
X124655597Y-102644418D01*
X124713000Y-102633000D01*
X126463000Y-102633000D01*
X126520403Y-102644418D01*
X126520403Y-102644418D01*
G37*
D12*
X125588000Y-102933000D03*
D11*
G36*
X126520403Y-101374418D02*
G01*
X126569066Y-101406934D01*
X126601582Y-101455597D01*
X126613000Y-101513000D01*
X126613000Y-101813000D01*
X126601582Y-101870403D01*
X126569066Y-101919066D01*
X126520403Y-101951582D01*
X126463000Y-101963000D01*
X124713000Y-101963000D01*
X124655597Y-101951582D01*
X124606934Y-101919066D01*
X124574418Y-101870403D01*
X124563000Y-101813000D01*
X124563000Y-101513000D01*
X124574418Y-101455597D01*
X124606934Y-101406934D01*
X124655597Y-101374418D01*
X124713000Y-101363000D01*
X126463000Y-101363000D01*
X126520403Y-101374418D01*
X126520403Y-101374418D01*
G37*
D12*
X125588000Y-101663000D03*
D11*
G36*
X126520403Y-100104418D02*
G01*
X126569066Y-100136934D01*
X126601582Y-100185597D01*
X126613000Y-100243000D01*
X126613000Y-100543000D01*
X126601582Y-100600403D01*
X126569066Y-100649066D01*
X126520403Y-100681582D01*
X126463000Y-100693000D01*
X124713000Y-100693000D01*
X124655597Y-100681582D01*
X124606934Y-100649066D01*
X124574418Y-100600403D01*
X124563000Y-100543000D01*
X124563000Y-100243000D01*
X124574418Y-100185597D01*
X124606934Y-100136934D01*
X124655597Y-100104418D01*
X124713000Y-100093000D01*
X126463000Y-100093000D01*
X126520403Y-100104418D01*
X126520403Y-100104418D01*
G37*
D12*
X125588000Y-100393000D03*
D11*
G36*
X126520403Y-98834418D02*
G01*
X126569066Y-98866934D01*
X126601582Y-98915597D01*
X126613000Y-98973000D01*
X126613000Y-99273000D01*
X126601582Y-99330403D01*
X126569066Y-99379066D01*
X126520403Y-99411582D01*
X126463000Y-99423000D01*
X124713000Y-99423000D01*
X124655597Y-99411582D01*
X124606934Y-99379066D01*
X124574418Y-99330403D01*
X124563000Y-99273000D01*
X124563000Y-98973000D01*
X124574418Y-98915597D01*
X124606934Y-98866934D01*
X124655597Y-98834418D01*
X124713000Y-98823000D01*
X126463000Y-98823000D01*
X126520403Y-98834418D01*
X126520403Y-98834418D01*
G37*
D12*
X125588000Y-99123000D03*
D11*
G36*
X126520403Y-97564418D02*
G01*
X126569066Y-97596934D01*
X126601582Y-97645597D01*
X126613000Y-97703000D01*
X126613000Y-98003000D01*
X126601582Y-98060403D01*
X126569066Y-98109066D01*
X126520403Y-98141582D01*
X126463000Y-98153000D01*
X124713000Y-98153000D01*
X124655597Y-98141582D01*
X124606934Y-98109066D01*
X124574418Y-98060403D01*
X124563000Y-98003000D01*
X124563000Y-97703000D01*
X124574418Y-97645597D01*
X124606934Y-97596934D01*
X124655597Y-97564418D01*
X124713000Y-97553000D01*
X126463000Y-97553000D01*
X126520403Y-97564418D01*
X126520403Y-97564418D01*
G37*
D12*
X125588000Y-97853000D03*
D11*
G36*
X126520403Y-96294418D02*
G01*
X126569066Y-96326934D01*
X126601582Y-96375597D01*
X126613000Y-96433000D01*
X126613000Y-96733000D01*
X126601582Y-96790403D01*
X126569066Y-96839066D01*
X126520403Y-96871582D01*
X126463000Y-96883000D01*
X124713000Y-96883000D01*
X124655597Y-96871582D01*
X124606934Y-96839066D01*
X124574418Y-96790403D01*
X124563000Y-96733000D01*
X124563000Y-96433000D01*
X124574418Y-96375597D01*
X124606934Y-96326934D01*
X124655597Y-96294418D01*
X124713000Y-96283000D01*
X126463000Y-96283000D01*
X126520403Y-96294418D01*
X126520403Y-96294418D01*
G37*
D12*
X125588000Y-96583000D03*
D11*
G36*
X135820403Y-96294418D02*
G01*
X135869066Y-96326934D01*
X135901582Y-96375597D01*
X135913000Y-96433000D01*
X135913000Y-96733000D01*
X135901582Y-96790403D01*
X135869066Y-96839066D01*
X135820403Y-96871582D01*
X135763000Y-96883000D01*
X134013000Y-96883000D01*
X133955597Y-96871582D01*
X133906934Y-96839066D01*
X133874418Y-96790403D01*
X133863000Y-96733000D01*
X133863000Y-96433000D01*
X133874418Y-96375597D01*
X133906934Y-96326934D01*
X133955597Y-96294418D01*
X134013000Y-96283000D01*
X135763000Y-96283000D01*
X135820403Y-96294418D01*
X135820403Y-96294418D01*
G37*
D12*
X134888000Y-96583000D03*
D11*
G36*
X135820403Y-97564418D02*
G01*
X135869066Y-97596934D01*
X135901582Y-97645597D01*
X135913000Y-97703000D01*
X135913000Y-98003000D01*
X135901582Y-98060403D01*
X135869066Y-98109066D01*
X135820403Y-98141582D01*
X135763000Y-98153000D01*
X134013000Y-98153000D01*
X133955597Y-98141582D01*
X133906934Y-98109066D01*
X133874418Y-98060403D01*
X133863000Y-98003000D01*
X133863000Y-97703000D01*
X133874418Y-97645597D01*
X133906934Y-97596934D01*
X133955597Y-97564418D01*
X134013000Y-97553000D01*
X135763000Y-97553000D01*
X135820403Y-97564418D01*
X135820403Y-97564418D01*
G37*
D12*
X134888000Y-97853000D03*
D11*
G36*
X135820403Y-98834418D02*
G01*
X135869066Y-98866934D01*
X135901582Y-98915597D01*
X135913000Y-98973000D01*
X135913000Y-99273000D01*
X135901582Y-99330403D01*
X135869066Y-99379066D01*
X135820403Y-99411582D01*
X135763000Y-99423000D01*
X134013000Y-99423000D01*
X133955597Y-99411582D01*
X133906934Y-99379066D01*
X133874418Y-99330403D01*
X133863000Y-99273000D01*
X133863000Y-98973000D01*
X133874418Y-98915597D01*
X133906934Y-98866934D01*
X133955597Y-98834418D01*
X134013000Y-98823000D01*
X135763000Y-98823000D01*
X135820403Y-98834418D01*
X135820403Y-98834418D01*
G37*
D12*
X134888000Y-99123000D03*
D11*
G36*
X135820403Y-100104418D02*
G01*
X135869066Y-100136934D01*
X135901582Y-100185597D01*
X135913000Y-100243000D01*
X135913000Y-100543000D01*
X135901582Y-100600403D01*
X135869066Y-100649066D01*
X135820403Y-100681582D01*
X135763000Y-100693000D01*
X134013000Y-100693000D01*
X133955597Y-100681582D01*
X133906934Y-100649066D01*
X133874418Y-100600403D01*
X133863000Y-100543000D01*
X133863000Y-100243000D01*
X133874418Y-100185597D01*
X133906934Y-100136934D01*
X133955597Y-100104418D01*
X134013000Y-100093000D01*
X135763000Y-100093000D01*
X135820403Y-100104418D01*
X135820403Y-100104418D01*
G37*
D12*
X134888000Y-100393000D03*
D11*
G36*
X135820403Y-101374418D02*
G01*
X135869066Y-101406934D01*
X135901582Y-101455597D01*
X135913000Y-101513000D01*
X135913000Y-101813000D01*
X135901582Y-101870403D01*
X135869066Y-101919066D01*
X135820403Y-101951582D01*
X135763000Y-101963000D01*
X134013000Y-101963000D01*
X133955597Y-101951582D01*
X133906934Y-101919066D01*
X133874418Y-101870403D01*
X133863000Y-101813000D01*
X133863000Y-101513000D01*
X133874418Y-101455597D01*
X133906934Y-101406934D01*
X133955597Y-101374418D01*
X134013000Y-101363000D01*
X135763000Y-101363000D01*
X135820403Y-101374418D01*
X135820403Y-101374418D01*
G37*
D12*
X134888000Y-101663000D03*
D11*
G36*
X135820403Y-102644418D02*
G01*
X135869066Y-102676934D01*
X135901582Y-102725597D01*
X135913000Y-102783000D01*
X135913000Y-103083000D01*
X135901582Y-103140403D01*
X135869066Y-103189066D01*
X135820403Y-103221582D01*
X135763000Y-103233000D01*
X134013000Y-103233000D01*
X133955597Y-103221582D01*
X133906934Y-103189066D01*
X133874418Y-103140403D01*
X133863000Y-103083000D01*
X133863000Y-102783000D01*
X133874418Y-102725597D01*
X133906934Y-102676934D01*
X133955597Y-102644418D01*
X134013000Y-102633000D01*
X135763000Y-102633000D01*
X135820403Y-102644418D01*
X135820403Y-102644418D01*
G37*
D12*
X134888000Y-102933000D03*
D11*
G36*
X135820403Y-103914418D02*
G01*
X135869066Y-103946934D01*
X135901582Y-103995597D01*
X135913000Y-104053000D01*
X135913000Y-104353000D01*
X135901582Y-104410403D01*
X135869066Y-104459066D01*
X135820403Y-104491582D01*
X135763000Y-104503000D01*
X134013000Y-104503000D01*
X133955597Y-104491582D01*
X133906934Y-104459066D01*
X133874418Y-104410403D01*
X133863000Y-104353000D01*
X133863000Y-104053000D01*
X133874418Y-103995597D01*
X133906934Y-103946934D01*
X133955597Y-103914418D01*
X134013000Y-103903000D01*
X135763000Y-103903000D01*
X135820403Y-103914418D01*
X135820403Y-103914418D01*
G37*
D12*
X134888000Y-104203000D03*
D11*
G36*
X135820403Y-105184418D02*
G01*
X135869066Y-105216934D01*
X135901582Y-105265597D01*
X135913000Y-105323000D01*
X135913000Y-105623000D01*
X135901582Y-105680403D01*
X135869066Y-105729066D01*
X135820403Y-105761582D01*
X135763000Y-105773000D01*
X134013000Y-105773000D01*
X133955597Y-105761582D01*
X133906934Y-105729066D01*
X133874418Y-105680403D01*
X133863000Y-105623000D01*
X133863000Y-105323000D01*
X133874418Y-105265597D01*
X133906934Y-105216934D01*
X133955597Y-105184418D01*
X134013000Y-105173000D01*
X135763000Y-105173000D01*
X135820403Y-105184418D01*
X135820403Y-105184418D01*
G37*
D12*
X134888000Y-105473000D03*
D11*
G36*
X135820403Y-106454418D02*
G01*
X135869066Y-106486934D01*
X135901582Y-106535597D01*
X135913000Y-106593000D01*
X135913000Y-106893000D01*
X135901582Y-106950403D01*
X135869066Y-106999066D01*
X135820403Y-107031582D01*
X135763000Y-107043000D01*
X134013000Y-107043000D01*
X133955597Y-107031582D01*
X133906934Y-106999066D01*
X133874418Y-106950403D01*
X133863000Y-106893000D01*
X133863000Y-106593000D01*
X133874418Y-106535597D01*
X133906934Y-106486934D01*
X133955597Y-106454418D01*
X134013000Y-106443000D01*
X135763000Y-106443000D01*
X135820403Y-106454418D01*
X135820403Y-106454418D01*
G37*
D12*
X134888000Y-106743000D03*
D11*
G36*
X135820403Y-107724418D02*
G01*
X135869066Y-107756934D01*
X135901582Y-107805597D01*
X135913000Y-107863000D01*
X135913000Y-108163000D01*
X135901582Y-108220403D01*
X135869066Y-108269066D01*
X135820403Y-108301582D01*
X135763000Y-108313000D01*
X134013000Y-108313000D01*
X133955597Y-108301582D01*
X133906934Y-108269066D01*
X133874418Y-108220403D01*
X133863000Y-108163000D01*
X133863000Y-107863000D01*
X133874418Y-107805597D01*
X133906934Y-107756934D01*
X133955597Y-107724418D01*
X134013000Y-107713000D01*
X135763000Y-107713000D01*
X135820403Y-107724418D01*
X135820403Y-107724418D01*
G37*
D12*
X134888000Y-108013000D03*
D13*
X150200000Y-96760000D03*
X150200000Y-99530000D03*
X150200000Y-102300000D03*
X150200000Y-105070000D03*
X150200000Y-107840000D03*
X114700000Y-107840000D03*
X114700000Y-105070000D03*
X114700000Y-102300000D03*
X114700000Y-99530000D03*
X114700000Y-96760000D03*
D14*
X140955000Y-107400000D03*
X139045000Y-107400000D03*
X140955000Y-97100000D03*
X139045000Y-97100000D03*
D15*
X144800000Y-105745000D03*
X144800000Y-107655000D03*
D16*
X144800000Y-100080000D03*
X144800000Y-97120000D03*
D17*
X121396000Y-97150800D03*
D18*
X121396000Y-99150800D03*
X119396000Y-97150800D03*
X119396000Y-99150800D03*
D19*
X139978000Y-104096000D03*
X139978000Y-100396000D03*
D20*
X121996000Y-108001000D03*
D21*
X119456000Y-108001000D03*
X121996000Y-105461000D03*
X119456000Y-105461000D03*
X121996000Y-102921000D03*
X119456000Y-102921000D03*
D12*
X129330700Y-98488000D03*
X130141000Y-98207800D03*
X131763500Y-101028800D03*
X136875900Y-106729900D03*
X139308000Y-105649100D03*
X143917600Y-102056000D03*
X137122800Y-97859700D03*
X144699300Y-101310900D03*
X133606800Y-95546500D03*
X117160400Y-100253200D03*
X117300000Y-109000000D03*
X132900000Y-100900000D03*
X133200000Y-103400000D03*
X131500000Y-108100000D03*
X127500000Y-104600000D03*
X142500000Y-97100000D03*
X117600000Y-96100000D03*
X128100000Y-101000000D03*
X137600000Y-103100000D03*
X147100000Y-108600000D03*
X147299700Y-101700000D03*
D22*
X141174500Y-106012500D03*
X117210800Y-105726900D03*
X136544700Y-96593900D03*
X128132100Y-107935900D03*
D23*
X121396000Y-99150800D02*
X122396300Y-99150800D01*
X123059100Y-98488000D02*
X122396300Y-99150800D01*
X129330700Y-98488000D02*
X123059100Y-98488000D01*
X129786200Y-97853000D02*
X130141000Y-98207800D01*
X125538000Y-97853000D02*
X129786200Y-97853000D01*
X129857700Y-99123000D02*
X131763500Y-101028800D01*
X125538000Y-99123000D02*
X129857700Y-99123000D01*
X132397700Y-101663000D02*
X131763500Y-101028800D01*
X134938000Y-101663000D02*
X132397700Y-101663000D01*
X136251400Y-106729900D02*
X136238300Y-106743000D01*
X136875900Y-106729900D02*
X136251400Y-106729900D01*
X134938000Y-106743000D02*
X136238300Y-106743000D01*
X136414400Y-105649100D02*
X136238300Y-105473000D01*
X139308000Y-105649100D02*
X136414400Y-105649100D01*
X134938000Y-105473000D02*
X136238300Y-105473000D01*
X136245000Y-97859700D02*
X136238300Y-97853000D01*
X137122800Y-97859700D02*
X136245000Y-97859700D01*
X134938000Y-97853000D02*
X136238300Y-97853000D01*
X150200000Y-107840000D02*
X148134700Y-107840000D01*
X148134700Y-106273100D02*
X143917600Y-102056000D01*
X148134700Y-107840000D02*
X148134700Y-106273100D01*
X148134700Y-104746300D02*
X144699300Y-101310900D01*
X148134700Y-105070000D02*
X148134700Y-104746300D01*
X127874800Y-95546500D02*
X126838300Y-96583000D01*
X133606800Y-95546500D02*
X127874800Y-95546500D01*
X125538000Y-96583000D02*
X126838300Y-96583000D01*
X150200000Y-105070000D02*
X148134700Y-105070000D01*
X137314600Y-100393000D02*
X134938000Y-100393000D01*
X138683000Y-99024600D02*
X137314600Y-100393000D01*
X146140800Y-99024600D02*
X138683000Y-99024600D01*
X148134700Y-101018500D02*
X146140800Y-99024600D01*
X148134700Y-102300000D02*
X148134700Y-101018500D01*
X150200000Y-102300000D02*
X148134700Y-102300000D01*
X150200000Y-99530000D02*
X148134700Y-99530000D01*
X134938000Y-99123000D02*
X136238300Y-99123000D01*
X147158200Y-98553500D02*
X148134700Y-99530000D01*
X138185700Y-98553500D02*
X147158200Y-98553500D01*
X137616200Y-99123000D02*
X138185700Y-98553500D01*
X136238300Y-99123000D02*
X137616200Y-99123000D01*
X119001700Y-101663000D02*
X125538000Y-101663000D01*
X116765300Y-103899400D02*
X119001700Y-101663000D01*
X116765300Y-105070000D02*
X116765300Y-103899400D01*
X114700000Y-105070000D02*
X116765300Y-105070000D01*
X123612400Y-101018300D02*
X124237700Y-100393000D01*
X118047000Y-101018300D02*
X123612400Y-101018300D01*
X116765300Y-102300000D02*
X118047000Y-101018300D01*
X114700000Y-102300000D02*
X116765300Y-102300000D01*
X125538000Y-100393000D02*
X124237700Y-100393000D01*
X114700000Y-96760000D02*
X116765300Y-96760000D01*
X126713000Y-102933000D02*
X125588000Y-102933000D01*
X122656200Y-100167900D02*
X123056500Y-99767600D01*
X116765300Y-98008600D02*
X118924600Y-100167900D01*
X123056500Y-99767600D02*
X126659368Y-99767600D01*
X118924600Y-100167900D02*
X122656200Y-100167900D01*
X116765300Y-96760000D02*
X116765300Y-98008600D01*
X126659368Y-99767600D02*
X126938010Y-100046242D01*
X126938010Y-100046242D02*
X126938010Y-102707990D01*
X126938010Y-102707990D02*
X126713000Y-102933000D01*
X121996000Y-102921000D02*
X123171300Y-102921000D01*
X132922600Y-108013000D02*
X134938000Y-108013000D01*
X128468000Y-103558400D02*
X132922600Y-108013000D01*
X123808700Y-103558400D02*
X128468000Y-103558400D01*
X123171300Y-102921000D02*
X123808700Y-103558400D01*
X144789900Y-108475400D02*
X144800000Y-108465300D01*
X136700700Y-108475400D02*
X144789900Y-108475400D01*
X136238300Y-108013000D02*
X136700700Y-108475400D01*
X134938000Y-108013000D02*
X136238300Y-108013000D01*
X144800000Y-107655000D02*
X144800000Y-108465300D01*
X121522000Y-104203000D02*
X125538000Y-104203000D01*
X120631300Y-105093700D02*
X121522000Y-104203000D01*
X120631300Y-105461000D02*
X120631300Y-105093700D01*
X119456000Y-105461000D02*
X120631300Y-105461000D01*
X116765300Y-99858100D02*
X116765300Y-99530000D01*
X117160400Y-100253200D02*
X116765300Y-99858100D01*
X114700000Y-99530000D02*
X116765300Y-99530000D01*
X124237700Y-106527400D02*
X124237700Y-106743000D01*
X123171300Y-105461000D02*
X124237700Y-106527400D01*
X121996000Y-105461000D02*
X123171300Y-105461000D01*
X125538000Y-106743000D02*
X124237700Y-106743000D01*
X121996000Y-108001000D02*
X123171300Y-108001000D01*
X126640168Y-107387600D02*
X126938010Y-107089758D01*
X126938010Y-107089758D02*
X126938010Y-105698010D01*
X123784700Y-107387600D02*
X126640168Y-107387600D01*
X123171300Y-108001000D02*
X123784700Y-107387600D01*
X126938010Y-105698010D02*
X126713000Y-105473000D01*
X126713000Y-105473000D02*
X125588000Y-105473000D01*
X136238800Y-101721300D02*
X136238800Y-101228700D01*
X136047700Y-101037600D02*
X133602940Y-101037600D01*
X133537990Y-100972650D02*
X133537990Y-98723510D01*
X136238800Y-101228700D02*
X136047700Y-101037600D01*
X133537990Y-98723510D02*
X133763800Y-98497700D01*
X133602940Y-101037600D02*
X133537990Y-100972650D01*
X133763800Y-98497700D02*
X137375200Y-98497700D01*
X137375200Y-98497700D02*
X138234700Y-97638200D01*
X138234700Y-97638200D02*
X138234700Y-97100000D01*
X138234700Y-97100000D02*
X139045000Y-97100000D01*
X139978000Y-100396000D02*
X139978000Y-101721300D01*
X139978000Y-101721300D02*
X136238800Y-101721300D01*
X136238300Y-101721800D02*
X136238800Y-101721300D01*
X136238300Y-102933000D02*
X136238300Y-101721800D01*
X134938000Y-102933000D02*
X136238300Y-102933000D01*
X134938000Y-104203000D02*
X136238300Y-104203000D01*
X139045000Y-107400000D02*
X139855300Y-107400000D01*
X139978000Y-107277300D02*
X139855300Y-107400000D01*
X139978000Y-104096000D02*
X139978000Y-107277300D01*
X138345700Y-104203000D02*
X138452700Y-104096000D01*
X136238300Y-104203000D02*
X138345700Y-104203000D01*
X139978000Y-104096000D02*
X138452700Y-104096000D01*
D24*
X142500000Y-97100000D02*
X143204700Y-97100000D01*
X140955000Y-107400000D02*
X140955000Y-106274700D01*
X144800000Y-97120000D02*
X143224700Y-97120000D01*
X118791400Y-104146300D02*
X117210800Y-105726900D01*
X119456000Y-104146300D02*
X118791400Y-104146300D01*
X119456000Y-102921000D02*
X119456000Y-104146300D01*
X140955000Y-106232000D02*
X141174500Y-106012500D01*
X140955000Y-106274700D02*
X140955000Y-106232000D01*
X134938000Y-96583000D02*
X136288300Y-96583000D01*
X136533800Y-96583000D02*
X136544700Y-96593900D01*
X136288300Y-96583000D02*
X136533800Y-96583000D01*
X143204700Y-97100000D02*
X143224700Y-97120000D01*
X140955000Y-97100000D02*
X142500000Y-97100000D01*
X137164000Y-95974600D02*
X136544700Y-96593900D01*
X139722100Y-95974600D02*
X137164000Y-95974600D01*
X140094700Y-96347200D02*
X139722100Y-95974600D01*
X140094700Y-97100000D02*
X140094700Y-96347200D01*
X140955000Y-97100000D02*
X140094700Y-97100000D01*
X143224700Y-103309400D02*
X143224700Y-100080000D01*
X144800000Y-104884700D02*
X143224700Y-103309400D01*
X144800000Y-105745000D02*
X144800000Y-104884700D01*
X144800000Y-100080000D02*
X143224700Y-100080000D01*
X144800000Y-105745000D02*
X144800000Y-106605300D01*
X125538000Y-108013000D02*
X126608900Y-108013000D01*
X128055000Y-108013000D02*
X128132100Y-107935900D01*
X126608900Y-108013000D02*
X128055000Y-108013000D01*
X145552800Y-106605300D02*
X144800000Y-106605300D01*
X145925400Y-106977900D02*
X145552800Y-106605300D01*
X145925400Y-108314200D02*
X145925400Y-106977900D01*
X145239100Y-109000500D02*
X145925400Y-108314200D01*
X129196700Y-109000500D02*
X145239100Y-109000500D01*
X128132100Y-107935900D02*
X129196700Y-109000500D01*
X124187700Y-108097400D02*
X124187700Y-108013000D01*
X123058700Y-109226400D02*
X124187700Y-108097400D01*
X120987700Y-109226400D02*
X123058700Y-109226400D01*
X120681300Y-108920000D02*
X120987700Y-109226400D01*
X120681300Y-108001000D02*
X120681300Y-108920000D01*
X119456000Y-108001000D02*
X120681300Y-108001000D01*
X125538000Y-108013000D02*
X124187700Y-108013000D01*
D25*
G36*
X147375701Y-106587488D02*
G01*
X147375700Y-107780266D01*
X147366239Y-107840000D01*
X147403850Y-108077467D01*
X147513002Y-108291690D01*
X147683010Y-108461698D01*
X147818163Y-108530562D01*
X147818163Y-108779921D01*
X147898795Y-109080845D01*
X147970248Y-109166000D01*
X146217698Y-109166000D01*
X146463489Y-108920210D01*
X146521791Y-108874248D01*
X146583732Y-108784627D01*
X146648436Y-108697026D01*
X146652732Y-108684793D01*
X146662998Y-108669940D01*
X146672805Y-108627634D01*
X146729038Y-108467502D01*
X146732940Y-108368187D01*
X146734400Y-108361889D01*
X146734400Y-108331036D01*
X146738589Y-108224424D01*
X146734400Y-108208625D01*
X146734400Y-107025931D01*
X146743126Y-106952200D01*
X146723558Y-106845057D01*
X146707363Y-106737334D01*
X146701750Y-106725646D01*
X146698507Y-106707886D01*
X146675530Y-106671043D01*
X146602059Y-106518043D01*
X146534585Y-106445049D01*
X146531165Y-106439567D01*
X146509389Y-106417792D01*
X146436930Y-106339407D01*
X146422792Y-106331195D01*
X146191837Y-106100240D01*
X146191837Y-105403623D01*
X147375701Y-106587488D01*
X147375701Y-106587488D01*
G37*
X147375701Y-106587488D02*
X147375700Y-107780266D01*
X147366239Y-107840000D01*
X147403850Y-108077467D01*
X147513002Y-108291690D01*
X147683010Y-108461698D01*
X147818163Y-108530562D01*
X147818163Y-108779921D01*
X147898795Y-109080845D01*
X147970248Y-109166000D01*
X146217698Y-109166000D01*
X146463489Y-108920210D01*
X146521791Y-108874248D01*
X146583732Y-108784627D01*
X146648436Y-108697026D01*
X146652732Y-108684793D01*
X146662998Y-108669940D01*
X146672805Y-108627634D01*
X146729038Y-108467502D01*
X146732940Y-108368187D01*
X146734400Y-108361889D01*
X146734400Y-108331036D01*
X146738589Y-108224424D01*
X146734400Y-108208625D01*
X146734400Y-107025931D01*
X146743126Y-106952200D01*
X146723558Y-106845057D01*
X146707363Y-106737334D01*
X146701750Y-106725646D01*
X146698507Y-106707886D01*
X146675530Y-106671043D01*
X146602059Y-106518043D01*
X146534585Y-106445049D01*
X146531165Y-106439567D01*
X146509389Y-106417792D01*
X146436930Y-106339407D01*
X146422792Y-106331195D01*
X146191837Y-106100240D01*
X146191837Y-105403623D01*
X147375701Y-106587488D01*
G36*
X118252610Y-103798526D02*
G01*
X118417669Y-103988739D01*
X118612416Y-104148422D01*
X118686061Y-104190343D01*
X118522760Y-104300284D01*
X118340534Y-104474119D01*
X118190203Y-104676172D01*
X118076064Y-104900666D01*
X118001382Y-105141181D01*
X117968292Y-105390841D01*
X117977740Y-105642508D01*
X118029456Y-105888983D01*
X118121961Y-106123222D01*
X118252610Y-106338526D01*
X118417669Y-106528739D01*
X118612416Y-106688422D01*
X118686061Y-106730343D01*
X118522760Y-106840284D01*
X118340534Y-107014119D01*
X118190203Y-107216172D01*
X118076064Y-107440666D01*
X118001382Y-107681181D01*
X117968292Y-107930841D01*
X117977740Y-108182508D01*
X118029456Y-108428983D01*
X118121961Y-108663222D01*
X118252610Y-108878526D01*
X118417669Y-109068739D01*
X118536287Y-109166000D01*
X116939601Y-109166000D01*
X117044956Y-108983519D01*
X117081837Y-108774357D01*
X117081837Y-106900079D01*
X117001205Y-106599156D01*
X116878547Y-106452978D01*
X116933165Y-106407148D01*
X117044956Y-106213519D01*
X117081837Y-106004357D01*
X117081837Y-105760562D01*
X117216990Y-105691698D01*
X117386998Y-105521690D01*
X117496150Y-105307467D01*
X117533761Y-105070000D01*
X117524300Y-105010266D01*
X117524300Y-104213786D01*
X118134387Y-103603699D01*
X118252610Y-103798526D01*
X118252610Y-103798526D01*
G37*
X118252610Y-103798526D02*
X118417669Y-103988739D01*
X118612416Y-104148422D01*
X118686061Y-104190343D01*
X118522760Y-104300284D01*
X118340534Y-104474119D01*
X118190203Y-104676172D01*
X118076064Y-104900666D01*
X118001382Y-105141181D01*
X117968292Y-105390841D01*
X117977740Y-105642508D01*
X118029456Y-105888983D01*
X118121961Y-106123222D01*
X118252610Y-106338526D01*
X118417669Y-106528739D01*
X118612416Y-106688422D01*
X118686061Y-106730343D01*
X118522760Y-106840284D01*
X118340534Y-107014119D01*
X118190203Y-107216172D01*
X118076064Y-107440666D01*
X118001382Y-107681181D01*
X117968292Y-107930841D01*
X117977740Y-108182508D01*
X118029456Y-108428983D01*
X118121961Y-108663222D01*
X118252610Y-108878526D01*
X118417669Y-109068739D01*
X118536287Y-109166000D01*
X116939601Y-109166000D01*
X117044956Y-108983519D01*
X117081837Y-108774357D01*
X117081837Y-106900079D01*
X117001205Y-106599156D01*
X116878547Y-106452978D01*
X116933165Y-106407148D01*
X117044956Y-106213519D01*
X117081837Y-106004357D01*
X117081837Y-105760562D01*
X117216990Y-105691698D01*
X117386998Y-105521690D01*
X117496150Y-105307467D01*
X117533761Y-105070000D01*
X117524300Y-105010266D01*
X117524300Y-104213786D01*
X118134387Y-103603699D01*
X118252610Y-103798526D01*
G36*
X132027712Y-108191500D02*
G01*
X129531799Y-108191500D01*
X129166100Y-107825802D01*
X129166100Y-107799772D01*
X129095634Y-107536791D01*
X128959506Y-107301009D01*
X128766991Y-107108494D01*
X128531209Y-106972366D01*
X128268228Y-106901900D01*
X127995972Y-106901900D01*
X127732991Y-106972366D01*
X127697010Y-106993140D01*
X127697010Y-105637766D01*
X127697009Y-105637760D01*
X127697009Y-105577796D01*
X127678322Y-105520284D01*
X127668860Y-105460542D01*
X127641400Y-105406651D01*
X127622714Y-105349137D01*
X127587166Y-105300209D01*
X127559707Y-105246320D01*
X127389353Y-105075965D01*
X127389349Y-105075963D01*
X127335047Y-105021661D01*
X127335045Y-105021657D01*
X127164690Y-104851303D01*
X127110800Y-104823844D01*
X127099783Y-104815839D01*
X127116394Y-104797937D01*
X127218937Y-104585005D01*
X127252738Y-104360748D01*
X127252738Y-104317400D01*
X128153614Y-104317400D01*
X132027712Y-108191500D01*
X132027712Y-108191500D01*
G37*
X132027712Y-108191500D02*
X129531799Y-108191500D01*
X129166100Y-107825802D01*
X129166100Y-107799772D01*
X129095634Y-107536791D01*
X128959506Y-107301009D01*
X128766991Y-107108494D01*
X128531209Y-106972366D01*
X128268228Y-106901900D01*
X127995972Y-106901900D01*
X127732991Y-106972366D01*
X127697010Y-106993140D01*
X127697010Y-105637766D01*
X127697009Y-105637760D01*
X127697009Y-105577796D01*
X127678322Y-105520284D01*
X127668860Y-105460542D01*
X127641400Y-105406651D01*
X127622714Y-105349137D01*
X127587166Y-105300209D01*
X127559707Y-105246320D01*
X127389353Y-105075965D01*
X127389349Y-105075963D01*
X127335047Y-105021661D01*
X127335045Y-105021657D01*
X127164690Y-104851303D01*
X127110800Y-104823844D01*
X127099783Y-104815839D01*
X127116394Y-104797937D01*
X127218937Y-104585005D01*
X127252738Y-104360748D01*
X127252738Y-104317400D01*
X128153614Y-104317400D01*
X132027712Y-108191500D01*
G36*
X142409092Y-100015810D02*
G01*
X142415701Y-100109148D01*
X142415700Y-103261368D01*
X142406974Y-103335099D01*
X142426542Y-103442242D01*
X142442737Y-103549965D01*
X142448350Y-103561652D01*
X142451593Y-103579415D01*
X142474573Y-103616260D01*
X142548040Y-103769256D01*
X142615512Y-103842247D01*
X142618933Y-103847731D01*
X142640716Y-103869513D01*
X142713170Y-103947893D01*
X142727306Y-103956104D01*
X143589759Y-104818558D01*
X143556835Y-104846185D01*
X143445044Y-105039814D01*
X143408163Y-105248976D01*
X143408163Y-106246588D01*
X143488795Y-106547512D01*
X143619659Y-106703470D01*
X143556835Y-106756185D01*
X143445044Y-106949814D01*
X143408163Y-107158976D01*
X143408163Y-107716400D01*
X142081837Y-107716400D01*
X142081837Y-107528000D01*
X140827000Y-107528000D01*
X140827000Y-106008163D01*
X141083000Y-106008163D01*
X141083000Y-107272000D01*
X142081837Y-107272000D01*
X142081837Y-106633412D01*
X142001205Y-106332489D01*
X141853815Y-106156835D01*
X141660186Y-106045044D01*
X141451024Y-106008163D01*
X141083000Y-106008163D01*
X140827000Y-106008163D01*
X140737000Y-106008163D01*
X140737000Y-105737837D01*
X141194588Y-105737837D01*
X141495512Y-105657205D01*
X141671165Y-105509815D01*
X141782956Y-105316186D01*
X141819837Y-105107024D01*
X141819837Y-103079412D01*
X141739205Y-102778489D01*
X141591815Y-102602835D01*
X141398186Y-102491044D01*
X141189024Y-102454163D01*
X140202757Y-102454163D01*
X140215467Y-102452150D01*
X140429690Y-102342998D01*
X140599698Y-102172990D01*
X140668562Y-102037837D01*
X141194588Y-102037837D01*
X141495512Y-101957205D01*
X141671165Y-101809815D01*
X141782956Y-101616186D01*
X141819837Y-101407024D01*
X141819837Y-99783600D01*
X142462915Y-99783600D01*
X142409092Y-100015810D01*
X142409092Y-100015810D01*
G37*
X142409092Y-100015810D02*
X142415701Y-100109148D01*
X142415700Y-103261368D01*
X142406974Y-103335099D01*
X142426542Y-103442242D01*
X142442737Y-103549965D01*
X142448350Y-103561652D01*
X142451593Y-103579415D01*
X142474573Y-103616260D01*
X142548040Y-103769256D01*
X142615512Y-103842247D01*
X142618933Y-103847731D01*
X142640716Y-103869513D01*
X142713170Y-103947893D01*
X142727306Y-103956104D01*
X143589759Y-104818558D01*
X143556835Y-104846185D01*
X143445044Y-105039814D01*
X143408163Y-105248976D01*
X143408163Y-106246588D01*
X143488795Y-106547512D01*
X143619659Y-106703470D01*
X143556835Y-106756185D01*
X143445044Y-106949814D01*
X143408163Y-107158976D01*
X143408163Y-107716400D01*
X142081837Y-107716400D01*
X142081837Y-107528000D01*
X140827000Y-107528000D01*
X140827000Y-106008163D01*
X141083000Y-106008163D01*
X141083000Y-107272000D01*
X142081837Y-107272000D01*
X142081837Y-106633412D01*
X142001205Y-106332489D01*
X141853815Y-106156835D01*
X141660186Y-106045044D01*
X141451024Y-106008163D01*
X141083000Y-106008163D01*
X140827000Y-106008163D01*
X140737000Y-106008163D01*
X140737000Y-105737837D01*
X141194588Y-105737837D01*
X141495512Y-105657205D01*
X141671165Y-105509815D01*
X141782956Y-105316186D01*
X141819837Y-105107024D01*
X141819837Y-103079412D01*
X141739205Y-102778489D01*
X141591815Y-102602835D01*
X141398186Y-102491044D01*
X141189024Y-102454163D01*
X140202757Y-102454163D01*
X140215467Y-102452150D01*
X140429690Y-102342998D01*
X140599698Y-102172990D01*
X140668562Y-102037837D01*
X141194588Y-102037837D01*
X141495512Y-101957205D01*
X141671165Y-101809815D01*
X141782956Y-101616186D01*
X141819837Y-101407024D01*
X141819837Y-99783600D01*
X142462915Y-99783600D01*
X142409092Y-100015810D01*
G36*
X130841101Y-101179788D02*
G01*
X130852852Y-101272808D01*
X130952016Y-101508710D01*
X131110966Y-101709256D01*
X131317991Y-101859669D01*
X131557840Y-101948868D01*
X131614979Y-101953666D01*
X131946010Y-102284698D01*
X131999896Y-102312154D01*
X132048825Y-102347703D01*
X132106342Y-102366391D01*
X132160232Y-102393850D01*
X132219975Y-102403312D01*
X132277486Y-102421999D01*
X132337450Y-102421999D01*
X132337456Y-102422000D01*
X133319184Y-102422000D01*
X133257063Y-102550995D01*
X133223262Y-102775252D01*
X133223262Y-103093121D01*
X133275438Y-103368876D01*
X133392848Y-103572237D01*
X133359606Y-103608063D01*
X133257063Y-103820995D01*
X133223262Y-104045252D01*
X133223262Y-104363121D01*
X133275438Y-104638876D01*
X133392848Y-104842237D01*
X133359606Y-104878063D01*
X133257063Y-105090995D01*
X133223262Y-105315252D01*
X133223262Y-105633121D01*
X133275438Y-105908876D01*
X133392848Y-106112237D01*
X133359606Y-106148063D01*
X133257063Y-106360995D01*
X133223262Y-106585252D01*
X133223262Y-106903121D01*
X133275438Y-107178876D01*
X133318811Y-107254000D01*
X133236988Y-107254000D01*
X129090047Y-103107061D01*
X129090045Y-103107057D01*
X128919690Y-102936703D01*
X128865801Y-102909244D01*
X128816873Y-102873696D01*
X128759359Y-102855010D01*
X128705468Y-102827550D01*
X128645726Y-102818088D01*
X128588213Y-102799401D01*
X128528250Y-102799401D01*
X128528244Y-102799400D01*
X127697009Y-102799400D01*
X127697009Y-102768240D01*
X127697010Y-102768234D01*
X127697010Y-99985998D01*
X127697009Y-99985992D01*
X127697009Y-99926028D01*
X127682703Y-99882000D01*
X129543314Y-99882000D01*
X130841101Y-101179788D01*
X130841101Y-101179788D01*
G37*
X130841101Y-101179788D02*
X130852852Y-101272808D01*
X130952016Y-101508710D01*
X131110966Y-101709256D01*
X131317991Y-101859669D01*
X131557840Y-101948868D01*
X131614979Y-101953666D01*
X131946010Y-102284698D01*
X131999896Y-102312154D01*
X132048825Y-102347703D01*
X132106342Y-102366391D01*
X132160232Y-102393850D01*
X132219975Y-102403312D01*
X132277486Y-102421999D01*
X132337450Y-102421999D01*
X132337456Y-102422000D01*
X133319184Y-102422000D01*
X133257063Y-102550995D01*
X133223262Y-102775252D01*
X133223262Y-103093121D01*
X133275438Y-103368876D01*
X133392848Y-103572237D01*
X133359606Y-103608063D01*
X133257063Y-103820995D01*
X133223262Y-104045252D01*
X133223262Y-104363121D01*
X133275438Y-104638876D01*
X133392848Y-104842237D01*
X133359606Y-104878063D01*
X133257063Y-105090995D01*
X133223262Y-105315252D01*
X133223262Y-105633121D01*
X133275438Y-105908876D01*
X133392848Y-106112237D01*
X133359606Y-106148063D01*
X133257063Y-106360995D01*
X133223262Y-106585252D01*
X133223262Y-106903121D01*
X133275438Y-107178876D01*
X133318811Y-107254000D01*
X133236988Y-107254000D01*
X129090047Y-103107061D01*
X129090045Y-103107057D01*
X128919690Y-102936703D01*
X128865801Y-102909244D01*
X128816873Y-102873696D01*
X128759359Y-102855010D01*
X128705468Y-102827550D01*
X128645726Y-102818088D01*
X128588213Y-102799401D01*
X128528250Y-102799401D01*
X128528244Y-102799400D01*
X127697009Y-102799400D01*
X127697009Y-102768240D01*
X127697010Y-102768234D01*
X127697010Y-99985998D01*
X127697009Y-99985992D01*
X127697009Y-99926028D01*
X127682703Y-99882000D01*
X129543314Y-99882000D01*
X130841101Y-101179788D01*
G36*
X138460489Y-102534795D02*
G01*
X138284835Y-102682185D01*
X138173044Y-102875814D01*
X138136163Y-103084976D01*
X138136163Y-103400790D01*
X138103827Y-103411296D01*
X138058814Y-103444000D01*
X136800688Y-103444000D01*
X136859998Y-103384690D01*
X136969150Y-103170467D01*
X137006761Y-102933000D01*
X136997300Y-102873266D01*
X136997300Y-102480300D01*
X138663867Y-102480300D01*
X138460489Y-102534795D01*
X138460489Y-102534795D01*
G37*
X138460489Y-102534795D02*
X138284835Y-102682185D01*
X138173044Y-102875814D01*
X138136163Y-103084976D01*
X138136163Y-103400790D01*
X138103827Y-103411296D01*
X138058814Y-103444000D01*
X136800688Y-103444000D01*
X136859998Y-103384690D01*
X136969150Y-103170467D01*
X137006761Y-102933000D01*
X136997300Y-102873266D01*
X136997300Y-102480300D01*
X138663867Y-102480300D01*
X138460489Y-102534795D01*
G36*
X147375701Y-101332888D02*
G01*
X147375700Y-102240266D01*
X147366239Y-102300000D01*
X147403850Y-102537467D01*
X147513002Y-102751690D01*
X147683010Y-102921698D01*
X147818163Y-102990562D01*
X147818163Y-103239921D01*
X147860789Y-103399003D01*
X145913623Y-101451837D01*
X146016588Y-101451837D01*
X146317512Y-101371205D01*
X146493165Y-101223815D01*
X146604956Y-101030186D01*
X146641837Y-100821024D01*
X146641837Y-100599023D01*
X147375701Y-101332888D01*
X147375701Y-101332888D01*
G37*
X147375701Y-101332888D02*
X147375700Y-102240266D01*
X147366239Y-102300000D01*
X147403850Y-102537467D01*
X147513002Y-102751690D01*
X147683010Y-102921698D01*
X147818163Y-102990562D01*
X147818163Y-103239921D01*
X147860789Y-103399003D01*
X145913623Y-101451837D01*
X146016588Y-101451837D01*
X146317512Y-101371205D01*
X146493165Y-101223815D01*
X146604956Y-101030186D01*
X146641837Y-100821024D01*
X146641837Y-100599023D01*
X147375701Y-101332888D01*
G36*
X126674014Y-95673899D02*
G01*
X126470748Y-95643262D01*
X124702879Y-95643262D01*
X124427124Y-95695438D01*
X124220357Y-95814814D01*
X124059606Y-95988063D01*
X123957063Y-96200995D01*
X123923262Y-96425252D01*
X123923262Y-96743121D01*
X123975438Y-97018876D01*
X124092848Y-97222237D01*
X124059606Y-97258063D01*
X123957063Y-97470995D01*
X123923262Y-97695252D01*
X123923262Y-97729000D01*
X122938886Y-97729000D01*
X122881365Y-97747690D01*
X122821633Y-97757150D01*
X122767742Y-97784608D01*
X122712837Y-97802448D01*
X122712837Y-96459212D01*
X122632205Y-96158289D01*
X122484815Y-95982635D01*
X122291186Y-95870844D01*
X122082024Y-95833963D01*
X120704412Y-95833963D01*
X120403489Y-95914595D01*
X120227835Y-96061985D01*
X120197034Y-96115334D01*
X120111982Y-96048284D01*
X119899075Y-95936269D01*
X119668525Y-95864681D01*
X119450822Y-95841800D01*
X119335068Y-95841800D01*
X119156434Y-95858214D01*
X118924890Y-95923516D01*
X118709124Y-96029921D01*
X118516361Y-96173862D01*
X118353058Y-96350523D01*
X118224684Y-96553984D01*
X118135537Y-96777433D01*
X118088602Y-97013387D01*
X118085453Y-97253942D01*
X118126195Y-97491044D01*
X118209462Y-97716749D01*
X118332467Y-97923502D01*
X118491090Y-98104376D01*
X118548649Y-98149752D01*
X118516362Y-98173862D01*
X118353058Y-98350523D01*
X118286344Y-98456258D01*
X117524300Y-97694214D01*
X117524300Y-96819734D01*
X117533761Y-96760000D01*
X117496150Y-96522533D01*
X117386998Y-96308310D01*
X117216990Y-96138302D01*
X117081837Y-96069438D01*
X117081837Y-95820079D01*
X117001205Y-95519156D01*
X116929751Y-95434000D01*
X126913912Y-95434000D01*
X126674014Y-95673899D01*
X126674014Y-95673899D01*
G37*
X126674014Y-95673899D02*
X126470748Y-95643262D01*
X124702879Y-95643262D01*
X124427124Y-95695438D01*
X124220357Y-95814814D01*
X124059606Y-95988063D01*
X123957063Y-96200995D01*
X123923262Y-96425252D01*
X123923262Y-96743121D01*
X123975438Y-97018876D01*
X124092848Y-97222237D01*
X124059606Y-97258063D01*
X123957063Y-97470995D01*
X123923262Y-97695252D01*
X123923262Y-97729000D01*
X122938886Y-97729000D01*
X122881365Y-97747690D01*
X122821633Y-97757150D01*
X122767742Y-97784608D01*
X122712837Y-97802448D01*
X122712837Y-96459212D01*
X122632205Y-96158289D01*
X122484815Y-95982635D01*
X122291186Y-95870844D01*
X122082024Y-95833963D01*
X120704412Y-95833963D01*
X120403489Y-95914595D01*
X120227835Y-96061985D01*
X120197034Y-96115334D01*
X120111982Y-96048284D01*
X119899075Y-95936269D01*
X119668525Y-95864681D01*
X119450822Y-95841800D01*
X119335068Y-95841800D01*
X119156434Y-95858214D01*
X118924890Y-95923516D01*
X118709124Y-96029921D01*
X118516361Y-96173862D01*
X118353058Y-96350523D01*
X118224684Y-96553984D01*
X118135537Y-96777433D01*
X118088602Y-97013387D01*
X118085453Y-97253942D01*
X118126195Y-97491044D01*
X118209462Y-97716749D01*
X118332467Y-97923502D01*
X118491090Y-98104376D01*
X118548649Y-98149752D01*
X118516362Y-98173862D01*
X118353058Y-98350523D01*
X118286344Y-98456258D01*
X117524300Y-97694214D01*
X117524300Y-96819734D01*
X117533761Y-96760000D01*
X117496150Y-96522533D01*
X117386998Y-96308310D01*
X117216990Y-96138302D01*
X117081837Y-96069438D01*
X117081837Y-95820079D01*
X117001205Y-95519156D01*
X116929751Y-95434000D01*
X126913912Y-95434000D01*
X126674014Y-95673899D01*
G36*
X140152489Y-95788795D02*
G01*
X139996530Y-95919659D01*
X139943815Y-95856835D01*
X139750186Y-95745044D01*
X139541024Y-95708163D01*
X138543412Y-95708163D01*
X138242489Y-95788795D01*
X138066835Y-95936185D01*
X137955044Y-96129814D01*
X137918163Y-96338976D01*
X137918163Y-96409438D01*
X137783010Y-96478302D01*
X137613002Y-96648310D01*
X137503850Y-96862533D01*
X137483023Y-96994029D01*
X137442153Y-96972663D01*
X137191847Y-96919459D01*
X136936453Y-96935527D01*
X136694790Y-97019684D01*
X136578223Y-97100700D01*
X136453589Y-97100700D01*
X136518937Y-96965004D01*
X136557221Y-96711000D01*
X133217183Y-96711000D01*
X133275438Y-97018876D01*
X133392848Y-97222237D01*
X133359606Y-97258063D01*
X133257063Y-97470995D01*
X133223262Y-97695252D01*
X133223262Y-97964851D01*
X133012657Y-98175455D01*
X133012657Y-98175456D01*
X132916293Y-98271820D01*
X132888839Y-98325704D01*
X132853287Y-98374635D01*
X132834598Y-98432155D01*
X132807141Y-98486043D01*
X132797680Y-98545778D01*
X132778991Y-98603297D01*
X132778991Y-98673694D01*
X132778990Y-100904000D01*
X132712087Y-100904000D01*
X132693139Y-100885052D01*
X132628734Y-100654380D01*
X132496172Y-100435494D01*
X132309630Y-100260320D01*
X132082853Y-100141763D01*
X131913948Y-100105861D01*
X130736544Y-98928458D01*
X130861086Y-98816320D01*
X130998203Y-98600258D01*
X131072360Y-98354638D01*
X131075231Y-98080499D01*
X131006234Y-97833380D01*
X130873672Y-97614494D01*
X130687130Y-97439320D01*
X130460353Y-97320763D01*
X130291448Y-97284861D01*
X130237890Y-97231303D01*
X130184001Y-97203844D01*
X130135073Y-97168296D01*
X130077559Y-97149610D01*
X130023668Y-97122150D01*
X129963926Y-97112688D01*
X129906413Y-97094001D01*
X129846450Y-97094001D01*
X129846444Y-97094000D01*
X127400688Y-97094000D01*
X127460345Y-97034343D01*
X127460346Y-97034341D01*
X128189188Y-96305500D01*
X133062373Y-96305500D01*
X133161291Y-96377369D01*
X133226810Y-96401736D01*
X133218784Y-96455000D01*
X133370035Y-96455000D01*
X133401141Y-96466568D01*
X133656141Y-96487980D01*
X133829029Y-96455000D01*
X134760000Y-96455000D01*
X134760000Y-95643262D01*
X135016000Y-95643262D01*
X135016000Y-96455000D01*
X136558817Y-96455000D01*
X136500562Y-96147124D01*
X136381186Y-95940357D01*
X136207937Y-95779606D01*
X135995005Y-95677063D01*
X135770748Y-95643262D01*
X135016000Y-95643262D01*
X134760000Y-95643262D01*
X134538684Y-95643262D01*
X134540876Y-95434000D01*
X147960399Y-95434000D01*
X147855044Y-95616481D01*
X147818163Y-95825643D01*
X147818163Y-97699921D01*
X147898795Y-98000845D01*
X148021453Y-98147023D01*
X147966835Y-98192852D01*
X147931734Y-98253648D01*
X147780247Y-98102161D01*
X147780245Y-98102157D01*
X147609890Y-97931803D01*
X147556001Y-97904344D01*
X147507073Y-97868796D01*
X147449559Y-97850110D01*
X147395668Y-97822650D01*
X147335926Y-97813188D01*
X147278413Y-97794501D01*
X147218450Y-97794501D01*
X147218444Y-97794500D01*
X146641837Y-97794500D01*
X146641837Y-97248000D01*
X142958163Y-97248000D01*
X142958163Y-97794500D01*
X142081837Y-97794500D01*
X142081837Y-97228000D01*
X140827000Y-97228000D01*
X140827000Y-95708163D01*
X141083000Y-95708163D01*
X141083000Y-96972000D01*
X142081837Y-96972000D01*
X142081837Y-96378976D01*
X142958163Y-96378976D01*
X142958163Y-96992000D01*
X144672000Y-96992000D01*
X144672000Y-95748163D01*
X144928000Y-95748163D01*
X144928000Y-96992000D01*
X146641837Y-96992000D01*
X146641837Y-96373412D01*
X146561205Y-96072489D01*
X146413815Y-95896835D01*
X146220186Y-95785044D01*
X146011024Y-95748163D01*
X144928000Y-95748163D01*
X144672000Y-95748163D01*
X143583412Y-95748163D01*
X143282489Y-95828795D01*
X143106835Y-95976185D01*
X142995044Y-96169814D01*
X142958163Y-96378976D01*
X142081837Y-96378976D01*
X142081837Y-96333412D01*
X142001205Y-96032489D01*
X141853815Y-95856835D01*
X141660186Y-95745044D01*
X141451024Y-95708163D01*
X141083000Y-95708163D01*
X140827000Y-95708163D01*
X140453412Y-95708163D01*
X140152489Y-95788795D01*
X140152489Y-95788795D01*
G37*
X140152489Y-95788795D02*
X139996530Y-95919659D01*
X139943815Y-95856835D01*
X139750186Y-95745044D01*
X139541024Y-95708163D01*
X138543412Y-95708163D01*
X138242489Y-95788795D01*
X138066835Y-95936185D01*
X137955044Y-96129814D01*
X137918163Y-96338976D01*
X137918163Y-96409438D01*
X137783010Y-96478302D01*
X137613002Y-96648310D01*
X137503850Y-96862533D01*
X137483023Y-96994029D01*
X137442153Y-96972663D01*
X137191847Y-96919459D01*
X136936453Y-96935527D01*
X136694790Y-97019684D01*
X136578223Y-97100700D01*
X136453589Y-97100700D01*
X136518937Y-96965004D01*
X136557221Y-96711000D01*
X133217183Y-96711000D01*
X133275438Y-97018876D01*
X133392848Y-97222237D01*
X133359606Y-97258063D01*
X133257063Y-97470995D01*
X133223262Y-97695252D01*
X133223262Y-97964851D01*
X133012657Y-98175455D01*
X133012657Y-98175456D01*
X132916293Y-98271820D01*
X132888839Y-98325704D01*
X132853287Y-98374635D01*
X132834598Y-98432155D01*
X132807141Y-98486043D01*
X132797680Y-98545778D01*
X132778991Y-98603297D01*
X132778991Y-98673694D01*
X132778990Y-100904000D01*
X132712087Y-100904000D01*
X132693139Y-100885052D01*
X132628734Y-100654380D01*
X132496172Y-100435494D01*
X132309630Y-100260320D01*
X132082853Y-100141763D01*
X131913948Y-100105861D01*
X130736544Y-98928458D01*
X130861086Y-98816320D01*
X130998203Y-98600258D01*
X131072360Y-98354638D01*
X131075231Y-98080499D01*
X131006234Y-97833380D01*
X130873672Y-97614494D01*
X130687130Y-97439320D01*
X130460353Y-97320763D01*
X130291448Y-97284861D01*
X130237890Y-97231303D01*
X130184001Y-97203844D01*
X130135073Y-97168296D01*
X130077559Y-97149610D01*
X130023668Y-97122150D01*
X129963926Y-97112688D01*
X129906413Y-97094001D01*
X129846450Y-97094001D01*
X129846444Y-97094000D01*
X127400688Y-97094000D01*
X127460345Y-97034343D01*
X127460346Y-97034341D01*
X128189188Y-96305500D01*
X133062373Y-96305500D01*
X133161291Y-96377369D01*
X133226810Y-96401736D01*
X133218784Y-96455000D01*
X133370035Y-96455000D01*
X133401141Y-96466568D01*
X133656141Y-96487980D01*
X133829029Y-96455000D01*
X134760000Y-96455000D01*
X134760000Y-95643262D01*
X135016000Y-95643262D01*
X135016000Y-96455000D01*
X136558817Y-96455000D01*
X136500562Y-96147124D01*
X136381186Y-95940357D01*
X136207937Y-95779606D01*
X135995005Y-95677063D01*
X135770748Y-95643262D01*
X135016000Y-95643262D01*
X134760000Y-95643262D01*
X134538684Y-95643262D01*
X134540876Y-95434000D01*
X147960399Y-95434000D01*
X147855044Y-95616481D01*
X147818163Y-95825643D01*
X147818163Y-97699921D01*
X147898795Y-98000845D01*
X148021453Y-98147023D01*
X147966835Y-98192852D01*
X147931734Y-98253648D01*
X147780247Y-98102161D01*
X147780245Y-98102157D01*
X147609890Y-97931803D01*
X147556001Y-97904344D01*
X147507073Y-97868796D01*
X147449559Y-97850110D01*
X147395668Y-97822650D01*
X147335926Y-97813188D01*
X147278413Y-97794501D01*
X147218450Y-97794501D01*
X147218444Y-97794500D01*
X146641837Y-97794500D01*
X146641837Y-97248000D01*
X142958163Y-97248000D01*
X142958163Y-97794500D01*
X142081837Y-97794500D01*
X142081837Y-97228000D01*
X140827000Y-97228000D01*
X140827000Y-95708163D01*
X141083000Y-95708163D01*
X141083000Y-96972000D01*
X142081837Y-96972000D01*
X142081837Y-96378976D01*
X142958163Y-96378976D01*
X142958163Y-96992000D01*
X144672000Y-96992000D01*
X144672000Y-95748163D01*
X144928000Y-95748163D01*
X144928000Y-96992000D01*
X146641837Y-96992000D01*
X146641837Y-96373412D01*
X146561205Y-96072489D01*
X146413815Y-95896835D01*
X146220186Y-95785044D01*
X146011024Y-95748163D01*
X144928000Y-95748163D01*
X144672000Y-95748163D01*
X143583412Y-95748163D01*
X143282489Y-95828795D01*
X143106835Y-95976185D01*
X142995044Y-96169814D01*
X142958163Y-96378976D01*
X142081837Y-96378976D01*
X142081837Y-96333412D01*
X142001205Y-96032489D01*
X141853815Y-95856835D01*
X141660186Y-95745044D01*
X141451024Y-95708163D01*
X141083000Y-95708163D01*
X140827000Y-95708163D01*
X140453412Y-95708163D01*
X140152489Y-95788795D01*
M02*
