G04 #@! TF.GenerationSoftware,KiCad,Pcbnew,(5.1.0-1348-g4ca769472)*
G04 #@! TF.CreationDate,2019-07-24T13:26:59+02:00*
G04 #@! TF.ProjectId,USB Joystick Adapter 'SINCHAI' (SMD Version),55534220-4a6f-4797-9374-69636b204164,1.0*
G04 #@! TF.SameCoordinates,Original*
G04 #@! TF.FileFunction,Legend,Bot*
G04 #@! TF.FilePolarity,Positive*
%FSLAX46Y46*%
G04 Gerber Fmt 4.6, Leading zero omitted, Abs format (unit mm)*
G04 Created by KiCad (PCBNEW (5.1.0-1348-g4ca769472)) date 2019-07-24 13:26:59*
%MOMM*%
%LPD*%
G04 APERTURE LIST*
%ADD10C,0.200000*%
%ADD11C,0.090000*%
%ADD12C,0.150000*%
%ADD13C,0.120000*%
G04 APERTURE END LIST*
D10*
X133152380Y-99652380D02*
X133342857Y-99652380D01*
X133152380Y-99957142D02*
X133342857Y-99957142D01*
X134104761Y-100261904D02*
X134152380Y-100376190D01*
X134152380Y-100566666D01*
X134104761Y-100642857D01*
X134057142Y-100680952D01*
X133961904Y-100719047D01*
X133866666Y-100719047D01*
X133771428Y-100680952D01*
X133723809Y-100642857D01*
X133676190Y-100566666D01*
X133628571Y-100414285D01*
X133580952Y-100338095D01*
X133533333Y-100300000D01*
X133438095Y-100261904D01*
X133342857Y-100261904D01*
X133247619Y-100300000D01*
X133200000Y-100338095D01*
X133152380Y-100414285D01*
X133152380Y-100604761D01*
X133200000Y-100719047D01*
X134152380Y-101061904D02*
X133485714Y-101061904D01*
X133152380Y-101061904D02*
X133200000Y-101023809D01*
X133247619Y-101061904D01*
X133200000Y-101100000D01*
X133152380Y-101061904D01*
X133247619Y-101061904D01*
X133485714Y-101442857D02*
X134152380Y-101442857D01*
X133580952Y-101442857D02*
X133533333Y-101480952D01*
X133485714Y-101557142D01*
X133485714Y-101671428D01*
X133533333Y-101747619D01*
X133628571Y-101785714D01*
X134152380Y-101785714D01*
X134104761Y-102509523D02*
X134152380Y-102433333D01*
X134152380Y-102280952D01*
X134104761Y-102204761D01*
X134057142Y-102166666D01*
X133961904Y-102128571D01*
X133676190Y-102128571D01*
X133580952Y-102166666D01*
X133533333Y-102204761D01*
X133485714Y-102280952D01*
X133485714Y-102433333D01*
X133533333Y-102509523D01*
X134152380Y-102852380D02*
X133152380Y-102852380D01*
X134152380Y-103195238D02*
X133628571Y-103195238D01*
X133533333Y-103157142D01*
X133485714Y-103080952D01*
X133485714Y-102966666D01*
X133533333Y-102890476D01*
X133580952Y-102852380D01*
X134152380Y-103919047D02*
X133628571Y-103919047D01*
X133533333Y-103880952D01*
X133485714Y-103804761D01*
X133485714Y-103652380D01*
X133533333Y-103576190D01*
X134104761Y-103919047D02*
X134152380Y-103842857D01*
X134152380Y-103652380D01*
X134104761Y-103576190D01*
X134009523Y-103538095D01*
X133914285Y-103538095D01*
X133819047Y-103576190D01*
X133771428Y-103652380D01*
X133771428Y-103842857D01*
X133723809Y-103919047D01*
X134152380Y-104300000D02*
X133485714Y-104300000D01*
X133152380Y-104300000D02*
X133200000Y-104261904D01*
X133247619Y-104300000D01*
X133200000Y-104338095D01*
X133152380Y-104300000D01*
X133247619Y-104300000D01*
X133152380Y-104642857D02*
X133342857Y-104642857D01*
X133152380Y-104947619D02*
X133342857Y-104947619D01*
X139652380Y-96338095D02*
X140461904Y-96338095D01*
X140557142Y-96376190D01*
X140604761Y-96414285D01*
X140652380Y-96490476D01*
X140652380Y-96642857D01*
X140604761Y-96719047D01*
X140557142Y-96757142D01*
X140461904Y-96795238D01*
X139652380Y-96795238D01*
X140604761Y-97138095D02*
X140652380Y-97252380D01*
X140652380Y-97442857D01*
X140604761Y-97519047D01*
X140557142Y-97557142D01*
X140461904Y-97595238D01*
X140366666Y-97595238D01*
X140271428Y-97557142D01*
X140223809Y-97519047D01*
X140176190Y-97442857D01*
X140128571Y-97290476D01*
X140080952Y-97214285D01*
X140033333Y-97176190D01*
X139938095Y-97138095D01*
X139842857Y-97138095D01*
X139747619Y-97176190D01*
X139700000Y-97214285D01*
X139652380Y-97290476D01*
X139652380Y-97480952D01*
X139700000Y-97595238D01*
X140128571Y-98204761D02*
X140176190Y-98319047D01*
X140223809Y-98357142D01*
X140319047Y-98395238D01*
X140461904Y-98395238D01*
X140557142Y-98357142D01*
X140604761Y-98319047D01*
X140652380Y-98242857D01*
X140652380Y-97938095D01*
X139652380Y-97938095D01*
X139652380Y-98204761D01*
X139700000Y-98280952D01*
X139747619Y-98319047D01*
X139842857Y-98357142D01*
X139938095Y-98357142D01*
X140033333Y-98319047D01*
X140080952Y-98280952D01*
X140128571Y-98204761D01*
X140128571Y-97938095D01*
X139652380Y-99576190D02*
X140366666Y-99576190D01*
X140509523Y-99538095D01*
X140604761Y-99461904D01*
X140652380Y-99347619D01*
X140652380Y-99271428D01*
X140652380Y-100071428D02*
X140604761Y-99995238D01*
X140557142Y-99957142D01*
X140461904Y-99919047D01*
X140176190Y-99919047D01*
X140080952Y-99957142D01*
X140033333Y-99995238D01*
X139985714Y-100071428D01*
X139985714Y-100185714D01*
X140033333Y-100261904D01*
X140080952Y-100300000D01*
X140176190Y-100338095D01*
X140461904Y-100338095D01*
X140557142Y-100300000D01*
X140604761Y-100261904D01*
X140652380Y-100185714D01*
X140652380Y-100071428D01*
X139985714Y-100604761D02*
X140652380Y-100795238D01*
X139985714Y-100985714D02*
X140652380Y-100795238D01*
X140890476Y-100719047D01*
X140938095Y-100680952D01*
X140985714Y-100604761D01*
X140604761Y-101252380D02*
X140652380Y-101328571D01*
X140652380Y-101480952D01*
X140604761Y-101557142D01*
X140509523Y-101595238D01*
X140461904Y-101595238D01*
X140366666Y-101557142D01*
X140319047Y-101480952D01*
X140319047Y-101366666D01*
X140271428Y-101290476D01*
X140176190Y-101252380D01*
X140128571Y-101252380D01*
X140033333Y-101290476D01*
X139985714Y-101366666D01*
X139985714Y-101480952D01*
X140033333Y-101557142D01*
X139985714Y-101823809D02*
X139985714Y-102128571D01*
X139652380Y-101938095D02*
X140509523Y-101938095D01*
X140604761Y-101976190D01*
X140652380Y-102052380D01*
X140652380Y-102128571D01*
X140652380Y-102395238D02*
X139985714Y-102395238D01*
X139652380Y-102395238D02*
X139700000Y-102357142D01*
X139747619Y-102395238D01*
X139700000Y-102433333D01*
X139652380Y-102395238D01*
X139747619Y-102395238D01*
X140604761Y-103119047D02*
X140652380Y-103042857D01*
X140652380Y-102890476D01*
X140604761Y-102814285D01*
X140557142Y-102776190D01*
X140461904Y-102738095D01*
X140176190Y-102738095D01*
X140080952Y-102776190D01*
X140033333Y-102814285D01*
X139985714Y-102890476D01*
X139985714Y-103042857D01*
X140033333Y-103119047D01*
X140652380Y-103461904D02*
X139652380Y-103461904D01*
X140271428Y-103538095D02*
X140652380Y-103766666D01*
X139985714Y-103766666D02*
X140366666Y-103461904D01*
X140652380Y-104452380D02*
X140128571Y-104452380D01*
X140033333Y-104414285D01*
X139985714Y-104338095D01*
X139985714Y-104185714D01*
X140033333Y-104109523D01*
X140604761Y-104452380D02*
X140652380Y-104376190D01*
X140652380Y-104185714D01*
X140604761Y-104109523D01*
X140509523Y-104071428D01*
X140414285Y-104071428D01*
X140319047Y-104109523D01*
X140271428Y-104185714D01*
X140271428Y-104376190D01*
X140223809Y-104452380D01*
X140652380Y-105176190D02*
X139652380Y-105176190D01*
X140604761Y-105176190D02*
X140652380Y-105100000D01*
X140652380Y-104947619D01*
X140604761Y-104871428D01*
X140557142Y-104833333D01*
X140461904Y-104795238D01*
X140176190Y-104795238D01*
X140080952Y-104833333D01*
X140033333Y-104871428D01*
X139985714Y-104947619D01*
X139985714Y-105100000D01*
X140033333Y-105176190D01*
X140652380Y-105900000D02*
X140128571Y-105900000D01*
X140033333Y-105861904D01*
X139985714Y-105785714D01*
X139985714Y-105633333D01*
X140033333Y-105557142D01*
X140604761Y-105900000D02*
X140652380Y-105823809D01*
X140652380Y-105633333D01*
X140604761Y-105557142D01*
X140509523Y-105519047D01*
X140414285Y-105519047D01*
X140319047Y-105557142D01*
X140271428Y-105633333D01*
X140271428Y-105823809D01*
X140223809Y-105900000D01*
X139985714Y-106280952D02*
X140985714Y-106280952D01*
X140033333Y-106280952D02*
X139985714Y-106357142D01*
X139985714Y-106509523D01*
X140033333Y-106585714D01*
X140080952Y-106623809D01*
X140176190Y-106661904D01*
X140461904Y-106661904D01*
X140557142Y-106623809D01*
X140604761Y-106585714D01*
X140652380Y-106509523D01*
X140652380Y-106357142D01*
X140604761Y-106280952D01*
X139985714Y-106890476D02*
X139985714Y-107195238D01*
X139652380Y-107004761D02*
X140509523Y-107004761D01*
X140604761Y-107042857D01*
X140652380Y-107119047D01*
X140652380Y-107195238D01*
X140604761Y-107766666D02*
X140652380Y-107690476D01*
X140652380Y-107538095D01*
X140604761Y-107461904D01*
X140509523Y-107423809D01*
X140128571Y-107423809D01*
X140033333Y-107461904D01*
X139985714Y-107538095D01*
X139985714Y-107690476D01*
X140033333Y-107766666D01*
X140128571Y-107804761D01*
X140223809Y-107804761D01*
X140319047Y-107423809D01*
X140652380Y-108147619D02*
X139985714Y-108147619D01*
X140176190Y-108147619D02*
X140080952Y-108185714D01*
X140033333Y-108223809D01*
X139985714Y-108300000D01*
X139985714Y-108376190D01*
D11*
X152200000Y-109800000D02*
X112700000Y-109800000D01*
X152200000Y-94800000D02*
X152200000Y-109800000D01*
X112700000Y-94800000D02*
X152200000Y-94800000D01*
X112700000Y-94800000D02*
X112700000Y-109800000D01*
D12*
X117265504Y-95739771D02*
X118065504Y-96006438D01*
X117265504Y-96273104D01*
X118027409Y-96844533D02*
X118065504Y-96768342D01*
X118065504Y-96615961D01*
X118027409Y-96539771D01*
X117951219Y-96501676D01*
X117646457Y-96501676D01*
X117570266Y-96539771D01*
X117532171Y-96615961D01*
X117532171Y-96768342D01*
X117570266Y-96844533D01*
X117646457Y-96882628D01*
X117722647Y-96882628D01*
X117798838Y-96501676D01*
X118065504Y-97225485D02*
X117532171Y-97225485D01*
X117684552Y-97225485D02*
X117608361Y-97263580D01*
X117570266Y-97301676D01*
X117532171Y-97377866D01*
X117532171Y-97454057D01*
X118065504Y-98749295D02*
X118065504Y-98292152D01*
X118065504Y-98520723D02*
X117265504Y-98520723D01*
X117379790Y-98444533D01*
X117455980Y-98368342D01*
X117494076Y-98292152D01*
X117989314Y-99092152D02*
X118027409Y-99130247D01*
X118065504Y-99092152D01*
X118027409Y-99054057D01*
X117989314Y-99092152D01*
X118065504Y-99092152D01*
X117341695Y-99435009D02*
X117303600Y-99473104D01*
X117265504Y-99549295D01*
X117265504Y-99739771D01*
X117303600Y-99815961D01*
X117341695Y-99854057D01*
X117417885Y-99892152D01*
X117494076Y-99892152D01*
X117608361Y-99854057D01*
X118065504Y-99396914D01*
X118065504Y-99892152D01*
X117227409Y-100806438D02*
X118255980Y-100120723D01*
X117341695Y-101035009D02*
X117303600Y-101073104D01*
X117265504Y-101149295D01*
X117265504Y-101339771D01*
X117303600Y-101415961D01*
X117341695Y-101454057D01*
X117417885Y-101492152D01*
X117494076Y-101492152D01*
X117608361Y-101454057D01*
X118065504Y-100996914D01*
X118065504Y-101492152D01*
X117265504Y-101987390D02*
X117265504Y-102063580D01*
X117303600Y-102139771D01*
X117341695Y-102177866D01*
X117417885Y-102215961D01*
X117570266Y-102254057D01*
X117760742Y-102254057D01*
X117913123Y-102215961D01*
X117989314Y-102177866D01*
X118027409Y-102139771D01*
X118065504Y-102063580D01*
X118065504Y-101987390D01*
X118027409Y-101911200D01*
X117989314Y-101873104D01*
X117913123Y-101835009D01*
X117760742Y-101796914D01*
X117570266Y-101796914D01*
X117417885Y-101835009D01*
X117341695Y-101873104D01*
X117303600Y-101911200D01*
X117265504Y-101987390D01*
X118065504Y-103015961D02*
X118065504Y-102558819D01*
X118065504Y-102787390D02*
X117265504Y-102787390D01*
X117379790Y-102711200D01*
X117455980Y-102635009D01*
X117494076Y-102558819D01*
X118065504Y-103396914D02*
X118065504Y-103549295D01*
X118027409Y-103625485D01*
X117989314Y-103663580D01*
X117875028Y-103739771D01*
X117722647Y-103777866D01*
X117417885Y-103777866D01*
X117341695Y-103739771D01*
X117303600Y-103701676D01*
X117265504Y-103625485D01*
X117265504Y-103473104D01*
X117303600Y-103396914D01*
X117341695Y-103358819D01*
X117417885Y-103320723D01*
X117608361Y-103320723D01*
X117684552Y-103358819D01*
X117722647Y-103396914D01*
X117760742Y-103473104D01*
X117760742Y-103625485D01*
X117722647Y-103701676D01*
X117684552Y-103739771D01*
X117608361Y-103777866D01*
X117760742Y-104120723D02*
X117760742Y-104730247D01*
X117265504Y-105263580D02*
X117265504Y-105339771D01*
X117303600Y-105415961D01*
X117341695Y-105454057D01*
X117417885Y-105492152D01*
X117570266Y-105530247D01*
X117760742Y-105530247D01*
X117913123Y-105492152D01*
X117989314Y-105454057D01*
X118027409Y-105415961D01*
X118065504Y-105339771D01*
X118065504Y-105263580D01*
X118027409Y-105187390D01*
X117989314Y-105149295D01*
X117913123Y-105111200D01*
X117760742Y-105073104D01*
X117570266Y-105073104D01*
X117417885Y-105111200D01*
X117341695Y-105149295D01*
X117303600Y-105187390D01*
X117265504Y-105263580D01*
X117265504Y-105796914D02*
X117265504Y-106330247D01*
X118065504Y-105987390D01*
X117760742Y-106635009D02*
X117760742Y-107244533D01*
X117341695Y-107587390D02*
X117303600Y-107625485D01*
X117265504Y-107701676D01*
X117265504Y-107892152D01*
X117303600Y-107968342D01*
X117341695Y-108006438D01*
X117417885Y-108044533D01*
X117494076Y-108044533D01*
X117608361Y-108006438D01*
X118065504Y-107549295D01*
X118065504Y-108044533D01*
X117532171Y-108730247D02*
X118065504Y-108730247D01*
X117227409Y-108539771D02*
X117798838Y-108349295D01*
X117798838Y-108844533D01*
D13*
X137108000Y-99061200D02*
X137408000Y-99061200D01*
X137108000Y-100481200D02*
X137408000Y-100481200D01*
X137108000Y-104167000D02*
X137408000Y-104167000D01*
X137108000Y-105587000D02*
X137408000Y-105587000D01*
X131246000Y-101594000D02*
X130946000Y-101594000D01*
X131246000Y-103014000D02*
X130946000Y-103014000D01*
X131246000Y-104144000D02*
X130946000Y-104144000D01*
X131246000Y-105564000D02*
X130946000Y-105564000D01*
X130946000Y-99043600D02*
X131246000Y-99043600D01*
X130946000Y-100463600D02*
X131246000Y-100463600D01*
X124590000Y-102950000D02*
X124590000Y-101650000D01*
X126410000Y-102950000D02*
X126410000Y-101650000D01*
X128901000Y-98078800D02*
X132801000Y-98078800D01*
X128901000Y-96078800D02*
X132801000Y-96078800D01*
X128901000Y-98078800D02*
X128901000Y-96078800D01*
X128901000Y-108518000D02*
X128901000Y-106518000D01*
X128901000Y-106518000D02*
X132801000Y-106518000D01*
X128901000Y-108518000D02*
X132801000Y-108518000D01*
D12*
X135385714Y-99666666D02*
X135423809Y-99628571D01*
X135461904Y-99514285D01*
X135461904Y-99438095D01*
X135423809Y-99323809D01*
X135347619Y-99247619D01*
X135271428Y-99209523D01*
X135119047Y-99171428D01*
X135004761Y-99171428D01*
X134852380Y-99209523D01*
X134776190Y-99247619D01*
X134700000Y-99323809D01*
X134661904Y-99438095D01*
X134661904Y-99514285D01*
X134700000Y-99628571D01*
X134738095Y-99666666D01*
X135461904Y-100428571D02*
X135461904Y-99971428D01*
X135461904Y-100200000D02*
X134661904Y-100200000D01*
X134776190Y-100123809D01*
X134852380Y-100047619D01*
X134890476Y-99971428D01*
X135385714Y-104766666D02*
X135423809Y-104728571D01*
X135461904Y-104614285D01*
X135461904Y-104538095D01*
X135423809Y-104423809D01*
X135347619Y-104347619D01*
X135271428Y-104309523D01*
X135119047Y-104271428D01*
X135004761Y-104271428D01*
X134852380Y-104309523D01*
X134776190Y-104347619D01*
X134700000Y-104423809D01*
X134661904Y-104538095D01*
X134661904Y-104614285D01*
X134700000Y-104728571D01*
X134738095Y-104766666D01*
X134738095Y-105071428D02*
X134700000Y-105109523D01*
X134661904Y-105185714D01*
X134661904Y-105376190D01*
X134700000Y-105452380D01*
X134738095Y-105490476D01*
X134814285Y-105528571D01*
X134890476Y-105528571D01*
X135004761Y-105490476D01*
X135461904Y-105033333D01*
X135461904Y-105528571D01*
X129261904Y-102178266D02*
X128880952Y-101911600D01*
X129261904Y-101721123D02*
X128461904Y-101721123D01*
X128461904Y-102025885D01*
X128500000Y-102102076D01*
X128538095Y-102140171D01*
X128614285Y-102178266D01*
X128728571Y-102178266D01*
X128804761Y-102140171D01*
X128842857Y-102102076D01*
X128880952Y-102025885D01*
X128880952Y-101721123D01*
X128538095Y-102483028D02*
X128500000Y-102521123D01*
X128461904Y-102597314D01*
X128461904Y-102787790D01*
X128500000Y-102863980D01*
X128538095Y-102902076D01*
X128614285Y-102940171D01*
X128690476Y-102940171D01*
X128804761Y-102902076D01*
X129261904Y-102444933D01*
X129261904Y-102940171D01*
X129261904Y-104718266D02*
X128880952Y-104451600D01*
X129261904Y-104261123D02*
X128461904Y-104261123D01*
X128461904Y-104565885D01*
X128500000Y-104642076D01*
X128538095Y-104680171D01*
X128614285Y-104718266D01*
X128728571Y-104718266D01*
X128804761Y-104680171D01*
X128842857Y-104642076D01*
X128880952Y-104565885D01*
X128880952Y-104261123D01*
X128461904Y-104984933D02*
X128461904Y-105480171D01*
X128766666Y-105213504D01*
X128766666Y-105327790D01*
X128804761Y-105403980D01*
X128842857Y-105442076D01*
X128919047Y-105480171D01*
X129109523Y-105480171D01*
X129185714Y-105442076D01*
X129223809Y-105403980D01*
X129261904Y-105327790D01*
X129261904Y-105099219D01*
X129223809Y-105023028D01*
X129185714Y-104984933D01*
X129261904Y-99612466D02*
X128880952Y-99345800D01*
X129261904Y-99155323D02*
X128461904Y-99155323D01*
X128461904Y-99460085D01*
X128500000Y-99536276D01*
X128538095Y-99574371D01*
X128614285Y-99612466D01*
X128728571Y-99612466D01*
X128804761Y-99574371D01*
X128842857Y-99536276D01*
X128880952Y-99460085D01*
X128880952Y-99155323D01*
X128728571Y-100298180D02*
X129261904Y-100298180D01*
X128423809Y-100107704D02*
X128995238Y-99917228D01*
X128995238Y-100412466D01*
X123628571Y-101966666D02*
X123628571Y-101633333D01*
X124152380Y-101633333D02*
X123152380Y-101633333D01*
X123152380Y-102109523D01*
X124152380Y-103014285D02*
X124152380Y-102442857D01*
X124152380Y-102728571D02*
X123152380Y-102728571D01*
X123295238Y-102633333D01*
X123390476Y-102538095D01*
X123438095Y-102442857D01*
X128661904Y-96488323D02*
X127861904Y-96488323D01*
X127861904Y-96678800D01*
X127900000Y-96793085D01*
X127976190Y-96869276D01*
X128052380Y-96907371D01*
X128204761Y-96945466D01*
X128319047Y-96945466D01*
X128471428Y-96907371D01*
X128547619Y-96869276D01*
X128623809Y-96793085D01*
X128661904Y-96678800D01*
X128661904Y-96488323D01*
X128661904Y-97707371D02*
X128661904Y-97250228D01*
X128661904Y-97478800D02*
X127861904Y-97478800D01*
X127976190Y-97402609D01*
X128052380Y-97326419D01*
X128090476Y-97250228D01*
X128661904Y-107009523D02*
X127861904Y-107009523D01*
X127861904Y-107200000D01*
X127900000Y-107314285D01*
X127976190Y-107390476D01*
X128052380Y-107428571D01*
X128204761Y-107466666D01*
X128319047Y-107466666D01*
X128471428Y-107428571D01*
X128547619Y-107390476D01*
X128623809Y-107314285D01*
X128661904Y-107200000D01*
X128661904Y-107009523D01*
X127938095Y-107771428D02*
X127900000Y-107809523D01*
X127861904Y-107885714D01*
X127861904Y-108076190D01*
X127900000Y-108152380D01*
X127938095Y-108190476D01*
X128014285Y-108228571D01*
X128090476Y-108228571D01*
X128204761Y-108190476D01*
X128661904Y-107733333D01*
X128661904Y-108228571D01*
M02*
