M48
; DRILL file {KiCad (5.1.0-1348-g4ca769472)} date Mittwoch, 24. Juli 2019 um 13:27:01
; FORMAT={-:-/ absolute / inch / decimal}
; #@! TF.CreationDate,2019-07-24T13:27:01+02:00
; #@! TF.GenerationSoftware,Kicad,Pcbnew,(5.1.0-1348-g4ca769472)
FMAT,2
INCH
T1C0.0118
T2C0.0157
T3C0.0315
T4C0.0394
%
G90
G05
T1
X4.6126Y-3.947
X4.6181Y-4.2913
X4.6299Y-3.7835
X5.0197Y-4.1181
X5.0433Y-3.9764
X5.0918Y-3.8775
X5.1237Y-3.8664
X5.1772Y-4.2559
X5.1875Y-3.9775
X5.2323Y-3.9724
X5.2441Y-4.0709
X5.2601Y-3.7617
X5.3888Y-4.202
X5.3985Y-3.8527
X5.4173Y-4.0591
X5.4846Y-4.1594
X5.6102Y-3.8228
X5.666Y-4.018
X5.6968Y-3.9886
X5.7913Y-4.2756
X5.7992Y-4.0039
T2
X4.6146Y-4.1625
X5.0446Y-4.2494
X5.3758Y-3.8029
X5.5581Y-4.1737
T3
X4.7006Y-3.8248
X4.7006Y-3.9036
X4.7794Y-3.8248
X4.7794Y-3.9036
T4
X4.703Y-4.052
X4.703Y-4.152
X4.703Y-4.252
X4.803Y-4.052
X4.803Y-4.152
X4.803Y-4.252
T0
M30
